<svg xmlns="http://www.w3.org/2000/svg" xmlns:xlink="http://www.w3.org/1999/xlink" width="500" zoomAndPan="magnify" viewBox="0 0 375 374.999991" height="500" preserveAspectRatio="xMidYMid meet" version="1.0"><defs><clipPath id="94808bad51"><path d="M 144.441406 77.917969 L 330.476562 77.917969 L 330.476562 230.449219 L 144.441406 230.449219 Z M 144.441406 77.917969 " clip-rule="nonzero"/></clipPath><clipPath id="6ba4e09631"><path d="M 152.253906 230.449219 C 151.980469 229.722656 151.714844 228.988281 151.453125 228.25 L 153.738281 228.25 C 153.230469 228.980469 152.738281 229.710938 152.253906 230.449219 M 237.835938 77.917969 L 238.140625 77.917969 L 238.175781 77.921875 L 238.722656 77.921875 L 238.746094 77.925781 L 239.121094 77.925781 L 239.160156 77.929688 L 239.308594 77.929688 L 239.3125 77.933594 L 239.601562 77.933594 L 239.613281 77.9375 L 239.796875 77.9375 L 239.804688 77.941406 L 239.953125 77.941406 L 240.066406 77.945312 L 240.089844 77.945312 L 240.101562 77.949219 L 240.214844 77.949219 L 240.253906 77.953125 L 240.425781 77.953125 L 240.460938 77.957031 L 240.601562 77.957031 L 240.636719 77.960938 L 240.707031 77.960938 L 240.742188 77.964844 L 240.847656 77.964844 L 240.871094 77.96875 L 240.984375 77.96875 L 241.023438 77.972656 L 241.089844 77.972656 L 241.125 77.976562 L 241.160156 77.976562 L 241.164062 77.980469 L 241.265625 77.980469 L 241.300781 77.984375 L 241.371094 77.984375 L 241.40625 77.988281 L 241.441406 77.988281 L 241.457031 77.992188 L 241.550781 77.992188 L 241.578125 77.996094 L 241.652344 77.996094 L 241.6875 78 L 241.71875 78 L 241.746094 78.003906 L 241.828125 78.003906 L 241.84375 78.007812 L 241.941406 78.007812 L 241.964844 78.011719 L 242 78.011719 L 242.035156 78.015625 L 242.105469 78.015625 L 242.136719 78.019531 L 242.171875 78.019531 L 242.210938 78.023438 L 242.242188 78.023438 L 242.277344 78.027344 L 242.328125 78.027344 L 242.347656 78.03125 L 242.382812 78.03125 L 242.417969 78.035156 L 242.453125 78.035156 L 242.488281 78.039062 L 242.523438 78.039062 L 242.621094 78.046875 L 242.714844 78.050781 L 242.746094 78.050781 L 242.800781 78.058594 L 242.886719 78.058594 L 242.910156 78.0625 L 242.914062 78.0625 L 242.941406 78.066406 L 243 78.066406 L 242.996094 78.066406 L 243.046875 78.070312 L 243.074219 78.074219 L 243.132812 78.074219 L 243.15625 78.078125 L 243.1875 78.078125 L 243.1875 78.082031 L 243.242188 78.082031 L 243.378906 78.09375 L 243.386719 78.09375 L 243.441406 78.097656 L 243.476562 78.097656 L 244.347656 78.167969 L 244.378906 78.171875 L 244.433594 78.171875 L 244.464844 78.175781 L 244.492188 78.175781 L 244.519531 78.179688 L 245.664062 78.285156 L 245.695312 78.285156 L 246.878906 78.410156 L 246.886719 78.410156 L 247.96875 78.539062 L 249.132812 78.695312 L 250.3125 78.867188 L 251.4375 79.054688 L 252.574219 79.253906 L 253.691406 79.46875 L 253.695312 79.46875 L 254.808594 79.695312 L 254.824219 79.699219 L 256.03125 79.972656 L 257.019531 80.203125 L 257.050781 80.210938 L 258.257812 80.519531 L 258.273438 80.519531 L 259.25 80.777344 L 260.429688 81.113281 L 261.496094 81.425781 L 261.519531 81.433594 L 262.457031 81.730469 L 262.535156 81.753906 L 263.703125 82.132812 L 264.621094 82.453125 L 264.640625 82.457031 L 264.664062 82.464844 L 264.679688 82.46875 L 264.699219 82.480469 L 264.71875 82.484375 L 264.738281 82.492188 L 264.757812 82.496094 L 264.773438 82.503906 L 264.851562 82.53125 L 264.867188 82.535156 L 265.773438 82.855469 L 265.8125 82.871094 L 265.832031 82.875 L 265.847656 82.882812 L 265.851562 82.882812 L 266.78125 83.234375 L 266.882812 83.273438 L 267.960938 83.6875 L 267.976562 83.695312 L 267.996094 83.703125 L 268.011719 83.710938 L 268.03125 83.71875 L 268.050781 83.722656 L 268.160156 83.769531 L 268.175781 83.777344 L 268.234375 83.800781 L 268.25 83.804688 L 268.289062 83.820312 L 268.304688 83.828125 L 268.324219 83.835938 L 268.339844 83.84375 L 268.359375 83.851562 L 268.375 83.855469 L 268.394531 83.867188 L 268.414062 83.875 L 268.433594 83.878906 L 268.449219 83.886719 L 268.46875 83.894531 L 268.484375 83.902344 L 268.523438 83.917969 L 268.539062 83.925781 L 268.558594 83.933594 L 268.574219 83.941406 L 268.613281 83.957031 L 268.628906 83.964844 L 268.648438 83.972656 L 268.667969 83.976562 L 268.683594 83.988281 L 268.703125 83.992188 L 268.722656 84 L 268.738281 84.007812 L 268.757812 84.019531 L 268.773438 84.023438 L 268.792969 84.03125 L 268.808594 84.039062 L 268.828125 84.046875 L 268.84375 84.054688 L 268.902344 84.078125 L 268.917969 84.082031 L 268.9375 84.09375 L 268.953125 84.101562 L 268.972656 84.109375 L 268.992188 84.113281 L 269.007812 84.121094 L 269.027344 84.128906 L 269.042969 84.136719 L 269.082031 84.152344 L 269.113281 84.167969 L 270.035156 84.546875 L 270.054688 84.558594 L 270.074219 84.566406 L 270.089844 84.574219 L 270.113281 84.582031 L 270.132812 84.59375 L 270.230469 84.632812 L 270.25 84.644531 L 270.269531 84.652344 L 270.292969 84.660156 L 270.308594 84.671875 L 270.328125 84.675781 L 270.347656 84.6875 L 270.371094 84.695312 L 270.386719 84.703125 L 270.40625 84.714844 L 270.425781 84.722656 L 270.566406 84.785156 L 270.585938 84.792969 L 270.824219 84.898438 L 270.84375 84.90625 L 270.945312 84.953125 L 270.960938 84.960938 L 270.980469 84.96875 L 271.042969 84.996094 L 271.0625 85.007812 L 271.082031 85.011719 L 271.101562 85.023438 L 271.121094 85.03125 L 271.140625 85.042969 L 271.179688 85.058594 L 271.199219 85.070312 L 271.238281 85.085938 L 271.257812 85.097656 L 271.296875 85.113281 L 272.136719 85.488281 L 272.191406 85.515625 L 272.210938 85.523438 L 272.257812 85.546875 L 272.285156 85.558594 L 272.355469 85.59375 L 272.382812 85.605469 L 272.40625 85.617188 L 273.59375 86.183594 L 273.664062 86.21875 L 273.6875 86.234375 L 273.714844 86.242188 L 274.160156 86.457031 L 274.210938 86.480469 C 274.839844 86.792969 275.464844 87.109375 276.085938 87.4375 L 276.210938 87.5 L 276.238281 87.515625 L 276.269531 87.53125 C 276.882812 87.855469 277.488281 88.183594 278.089844 88.523438 L 278.183594 88.570312 L 278.226562 88.597656 L 279.167969 89.140625 L 279.183594 89.152344 L 279.203125 89.160156 L 279.21875 89.171875 L 279.25 89.1875 L 279.265625 89.199219 L 279.296875 89.214844 L 279.316406 89.226562 L 279.332031 89.234375 L 279.347656 89.246094 L 279.363281 89.253906 L 279.382812 89.265625 L 279.394531 89.273438 L 279.410156 89.28125 L 279.429688 89.292969 L 279.460938 89.308594 L 279.492188 89.332031 L 279.539062 89.355469 L 279.558594 89.367188 L 279.574219 89.375 L 279.589844 89.386719 L 279.605469 89.394531 L 279.621094 89.40625 L 279.636719 89.414062 L 279.652344 89.425781 L 279.667969 89.433594 L 279.6875 89.441406 L 279.703125 89.453125 L 279.714844 89.460938 L 279.75 89.480469 L 279.769531 89.488281 L 279.785156 89.5 L 279.816406 89.519531 L 279.832031 89.527344 L 279.851562 89.539062 L 279.863281 89.546875 L 279.878906 89.554688 L 279.894531 89.566406 L 279.914062 89.574219 L 279.929688 89.585938 L 279.945312 89.59375 L 279.960938 89.605469 L 279.976562 89.613281 L 279.992188 89.625 L 280.007812 89.632812 L 280.027344 89.640625 L 280.042969 89.652344 L 280.054688 89.660156 L 280.074219 89.671875 L 280.105469 89.6875 L 280.121094 89.699219 L 280.136719 89.707031 L 280.152344 89.71875 L 280.171875 89.730469 L 280.203125 89.746094 L 280.21875 89.757812 L 280.234375 89.765625 L 280.246094 89.777344 L 280.308594 89.8125 L 280.324219 89.820312 L 280.78125 90.101562 L 280.796875 90.113281 L 280.828125 90.128906 L 280.84375 90.140625 L 280.859375 90.148438 L 280.875 90.160156 L 280.890625 90.167969 L 280.90625 90.179688 L 280.921875 90.1875 L 280.9375 90.199219 L 280.953125 90.207031 L 280.964844 90.214844 L 280.980469 90.226562 L 280.996094 90.234375 L 281.011719 90.246094 L 281.027344 90.253906 L 281.042969 90.265625 L 281.074219 90.28125 L 281.085938 90.292969 L 281.101562 90.300781 L 281.121094 90.3125 L 281.132812 90.320312 L 281.152344 90.328125 L 281.164062 90.339844 L 281.179688 90.347656 L 282.15625 90.949219 L 283.089844 91.554688 L 283.105469 91.5625 L 283.121094 91.574219 L 283.136719 91.582031 L 283.183594 91.617188 L 283.214844 91.632812 L 283.230469 91.644531 L 283.292969 91.6875 L 283.3125 91.699219 L 283.324219 91.707031 L 283.34375 91.71875 L 283.359375 91.726562 L 283.390625 91.75 L 283.40625 91.757812 L 283.4375 91.78125 L 283.453125 91.789062 L 283.46875 91.800781 L 283.484375 91.808594 L 283.53125 91.84375 L 283.546875 91.851562 L 283.5625 91.863281 L 283.582031 91.875 L 283.59375 91.882812 L 283.644531 91.914062 L 283.660156 91.925781 L 283.675781 91.933594 L 283.707031 91.957031 L 283.742188 91.976562 L 283.753906 91.984375 L 283.773438 91.996094 L 283.785156 92.007812 L 283.800781 92.015625 L 283.996094 92.140625 L 284.007812 92.152344 L 284.039062 92.175781 L 284.054688 92.183594 L 284.074219 92.191406 L 284.089844 92.207031 L 284.101562 92.214844 L 284.996094 92.824219 L 285.011719 92.839844 L 285.027344 92.847656 L 285.046875 92.859375 L 285.058594 92.871094 L 285.078125 92.882812 L 285.09375 92.894531 L 285.109375 92.902344 L 285.15625 92.9375 L 285.171875 92.945312 L 285.1875 92.957031 L 285.203125 92.972656 L 285.21875 92.980469 L 285.238281 92.992188 L 285.253906 93 L 285.265625 93.015625 L 285.285156 93.027344 L 285.300781 93.035156 L 285.316406 93.046875 L 285.332031 93.054688 L 285.347656 93.070312 L 285.363281 93.078125 L 285.425781 93.125 L 285.457031 93.144531 L 285.503906 93.179688 L 285.917969 93.464844 L 285.996094 93.523438 L 286.015625 93.535156 L 286.847656 94.128906 L 286.863281 94.144531 L 286.910156 94.179688 L 286.925781 94.1875 L 286.941406 94.203125 L 286.957031 94.214844 L 286.972656 94.222656 L 286.992188 94.234375 L 287.007812 94.25 L 287.101562 94.320312 L 287.121094 94.332031 L 287.136719 94.34375 L 287.152344 94.351562 L 287.308594 94.46875 L 287.328125 94.480469 L 287.339844 94.492188 L 287.757812 94.796875 L 287.773438 94.808594 L 287.792969 94.820312 L 287.804688 94.832031 L 287.824219 94.84375 L 287.855469 94.867188 L 287.871094 94.882812 L 288.796875 95.578125 L 288.871094 95.640625 L 289.699219 96.269531 L 289.703125 96.277344 L 290.617188 97.003906 L 291.527344 97.738281 L 291.53125 97.742188 L 292.441406 98.503906 L 292.484375 98.535156 L 293.246094 99.1875 L 293.285156 99.21875 L 294.183594 100.003906 L 295.078125 100.804688 L 295.089844 100.816406 L 295.890625 101.554688 L 296.796875 102.40625 L 297.628906 103.207031 L 298.453125 104.019531 L 299.316406 104.886719 L 300.105469 105.703125 L 300.9375 106.582031 L 301.71875 107.429688 L 301.738281 107.449219 L 302.542969 108.339844 L 303.34375 109.253906 L 304.066406 110.089844 L 304.898438 111.082031 L 305.640625 111.976562 L 306.390625 112.921875 L 307.09375 113.8125 L 307.859375 114.816406 L 307.875 114.835938 L 308.582031 115.777344 L 309.320312 116.796875 L 309.964844 117.695312 L 310.773438 118.855469 L 311.351562 119.707031 L 311.363281 119.722656 L 311.613281 120.09375 L 311.636719 120.132812 L 311.652344 120.148438 L 311.664062 120.171875 L 311.675781 120.1875 L 311.699219 120.226562 L 311.714844 120.246094 L 311.726562 120.261719 L 311.738281 120.28125 L 311.753906 120.300781 L 311.761719 120.320312 L 311.777344 120.335938 L 311.785156 120.355469 L 311.800781 120.375 L 311.824219 120.414062 L 311.839844 120.433594 L 311.851562 120.449219 L 311.875 120.488281 L 311.886719 120.503906 L 311.898438 120.523438 L 311.914062 120.542969 L 311.925781 120.558594 L 311.9375 120.578125 L 311.953125 120.597656 L 311.976562 120.636719 L 311.992188 120.652344 L 312 120.671875 L 312.015625 120.691406 L 312.050781 120.75 L 312.066406 120.765625 L 312.101562 120.824219 L 312.113281 120.839844 L 312.128906 120.859375 L 312.140625 120.878906 L 312.152344 120.894531 L 312.703125 121.742188 L 312.71875 121.761719 L 312.726562 121.78125 L 312.757812 121.820312 L 312.78125 121.859375 L 312.796875 121.878906 L 312.832031 121.9375 L 312.847656 121.957031 L 312.871094 121.996094 L 312.882812 122.019531 L 312.898438 122.039062 L 312.910156 122.054688 L 312.921875 122.078125 L 312.933594 122.09375 L 312.960938 122.136719 L 312.972656 122.15625 L 313.234375 122.574219 L 313.292969 122.671875 L 313.308594 122.691406 L 313.355469 122.769531 L 313.371094 122.792969 L 313.40625 122.851562 L 313.421875 122.871094 L 313.46875 122.949219 L 313.484375 122.96875 L 313.496094 122.988281 L 313.507812 123.011719 L 314.011719 123.816406 L 314.042969 123.871094 L 314.121094 123.996094 L 314.136719 124.027344 C 314.488281 124.609375 314.835938 125.191406 315.179688 125.777344 L 315.199219 125.8125 L 315.214844 125.84375 L 315.253906 125.90625 L 315.269531 125.933594 L 315.347656 126.066406 C 315.691406 126.667969 316.035156 127.273438 316.371094 127.878906 L 316.40625 127.949219 L 316.445312 128.015625 L 316.457031 128.035156 L 316.484375 128.085938 L 316.523438 128.152344 C 316.84375 128.738281 317.160156 129.328125 317.472656 129.925781 L 317.507812 129.992188 L 317.542969 130.0625 L 317.582031 130.132812 L 317.605469 130.171875 L 317.617188 130.199219 L 317.652344 130.269531 L 318.019531 130.984375 L 318.03125 131.007812 L 318.039062 131.03125 L 318.054688 131.054688 L 318.089844 131.125 L 318.101562 131.144531 L 318.117188 131.171875 L 318.128906 131.191406 L 318.175781 131.285156 L 318.1875 131.3125 L 318.222656 131.378906 L 318.292969 131.519531 L 318.304688 131.539062 L 318.34375 131.613281 L 318.355469 131.632812 L 318.484375 131.890625 L 318.496094 131.910156 L 318.53125 131.980469 L 318.546875 132.003906 L 318.558594 132.03125 L 318.566406 132.050781 L 318.582031 132.074219 L 318.6875 132.285156 L 318.734375 132.375 L 318.746094 132.398438 L 318.757812 132.425781 L 318.769531 132.449219 L 318.78125 132.46875 L 319.222656 133.386719 L 319.234375 133.40625 L 319.246094 133.429688 L 319.253906 133.449219 L 319.265625 133.46875 L 319.273438 133.488281 L 319.285156 133.507812 L 319.296875 133.53125 L 319.304688 133.550781 L 319.335938 133.613281 L 319.347656 133.632812 L 319.355469 133.652344 L 319.367188 133.671875 L 319.378906 133.695312 L 319.386719 133.714844 L 319.398438 133.734375 L 319.40625 133.753906 L 319.417969 133.773438 L 319.429688 133.796875 L 319.4375 133.816406 L 319.449219 133.835938 L 319.457031 133.859375 L 319.480469 133.898438 L 319.488281 133.917969 L 319.5 133.941406 L 319.507812 133.960938 L 319.53125 134 L 319.539062 134.023438 L 319.5625 134.0625 L 319.570312 134.082031 L 319.582031 134.105469 L 319.59375 134.125 L 319.601562 134.144531 L 319.609375 134.167969 L 319.644531 134.226562 L 319.652344 134.25 L 319.664062 134.269531 L 319.671875 134.289062 L 319.683594 134.308594 L 319.703125 134.351562 L 319.710938 134.371094 L 319.734375 134.414062 L 319.742188 134.433594 L 319.753906 134.457031 L 319.820312 134.601562 L 319.832031 134.621094 L 319.839844 134.640625 L 319.851562 134.664062 L 319.859375 134.683594 L 319.871094 134.703125 L 320.34375 135.738281 L 320.359375 135.777344 L 320.371094 135.796875 L 320.378906 135.816406 L 320.390625 135.835938 L 320.40625 135.875 L 320.417969 135.894531 L 320.425781 135.914062 L 320.445312 135.953125 L 320.460938 135.992188 L 320.472656 136.011719 L 320.480469 136.03125 L 320.492188 136.046875 L 320.5 136.070312 L 320.511719 136.085938 L 320.519531 136.109375 L 320.527344 136.128906 L 320.539062 136.148438 L 320.542969 136.167969 L 320.554688 136.1875 L 320.566406 136.203125 L 320.574219 136.226562 L 320.589844 136.265625 L 320.613281 136.304688 L 320.617188 136.324219 L 320.640625 136.363281 L 320.664062 136.421875 L 320.675781 136.441406 L 320.691406 136.480469 L 320.703125 136.5 L 320.71875 136.539062 L 320.730469 136.558594 L 320.738281 136.578125 L 320.75 136.597656 L 320.753906 136.617188 L 320.765625 136.636719 L 320.773438 136.65625 L 320.792969 136.695312 L 320.800781 136.714844 L 320.855469 136.832031 L 320.863281 136.851562 L 320.871094 136.875 L 320.882812 136.894531 L 320.90625 136.953125 L 320.917969 136.972656 L 320.925781 136.992188 L 321.375 138.027344 L 321.421875 138.140625 L 321.90625 139.289062 L 322.371094 140.425781 L 322.390625 140.464844 L 322.851562 141.621094 L 322.859375 141.640625 L 323.273438 142.71875 L 323.28125 142.742188 L 323.761719 144.019531 L 323.761719 144.023438 L 324.160156 145.132812 L 324.621094 146.445312 L 324.980469 147.515625 L 325 147.574219 L 325.425781 148.890625 L 325.78125 150.027344 L 325.792969 150.0625 L 326.164062 151.292969 L 326.515625 152.507812 L 326.878906 153.820312 L 327.1875 154.96875 L 327.199219 155.015625 L 327.527344 156.304688 L 327.53125 156.320312 L 327.84375 157.597656 L 327.855469 157.632812 L 328.105469 158.710938 L 328.113281 158.75 L 328.417969 160.132812 L 328.417969 160.136719 L 328.683594 161.394531 L 328.941406 162.6875 L 329.171875 163.914062 L 329.421875 165.324219 L 329.617188 166.503906 L 329.625 166.550781 L 329.835938 167.882812 L 329.839844 167.914062 L 330.03125 169.242188 L 330.03125 169.246094 L 330.207031 170.554688 L 330.351562 171.761719 L 330.363281 171.867188 L 330.480469 172.878906 C 316.726562 169.816406 302.132812 168.160156 287.011719 168.160156 C 245.078125 168.160156 207.195312 180.835938 180.070312 201.246094 C 178.707031 199.207031 176.386719 197.863281 173.761719 197.863281 L 144.925781 197.863281 C 144.609375 194.214844 144.445312 190.515625 144.445312 186.773438 C 144.445312 178.792969 145.1875 171.015625 146.585938 163.527344 L 222.050781 163.527344 C 226.230469 163.527344 229.640625 160.117188 229.640625 155.933594 C 229.640625 151.753906 226.230469 148.34375 222.050781 148.34375 L 236.363281 148.34375 C 240.542969 148.34375 243.953125 144.933594 243.953125 140.753906 C 243.953125 136.574219 240.542969 133.164062 236.363281 133.164062 L 156.535156 133.164062 L 156.554688 133.125 L 156.671875 132.878906 L 156.695312 132.832031 L 156.914062 132.386719 L 157.035156 132.140625 L 157.160156 131.894531 L 157.320312 131.574219 L 157.335938 131.546875 L 157.347656 131.519531 L 157.363281 131.496094 L 157.375 131.46875 L 157.933594 130.375 L 157.964844 130.328125 L 157.976562 130.300781 L 157.988281 130.277344 L 158 130.25 L 158.015625 130.226562 L 158.03125 130.199219 L 158.042969 130.175781 L 158.058594 130.148438 L 158.070312 130.125 L 158.085938 130.097656 L 158.109375 130.050781 L 158.125 130.023438 L 158.136719 129.996094 L 158.207031 129.875 L 158.230469 129.828125 L 158.242188 129.800781 L 158.257812 129.777344 L 158.265625 129.757812 L 158.28125 129.730469 L 158.296875 129.707031 L 158.308594 129.683594 L 158.410156 129.496094 L 158.421875 129.472656 L 158.671875 129 L 158.6875 128.976562 L 158.734375 128.882812 L 158.761719 128.835938 L 158.773438 128.8125 L 158.789062 128.789062 L 158.824219 128.71875 L 158.839844 128.695312 L 158.851562 128.671875 L 158.867188 128.648438 L 158.894531 128.59375 L 158.90625 128.578125 L 158.929688 128.53125 L 158.945312 128.507812 L 158.96875 128.460938 L 158.984375 128.4375 L 159.007812 128.390625 L 159.023438 128.367188 L 159.246094 127.964844 L 159.246094 127.960938 L 159.910156 126.777344 L 159.929688 126.742188 L 160.230469 126.21875 L 160.800781 125.238281 L 161.21875 124.53125 L 161.804688 123.566406 L 162.125 123.042969 L 162.878906 121.847656 L 162.890625 121.828125 L 163.089844 121.511719 L 163.136719 121.441406 L 163.152344 121.414062 L 163.179688 121.367188 L 163.199219 121.34375 L 163.257812 121.246094 L 163.289062 121.199219 L 163.308594 121.175781 L 163.320312 121.152344 L 163.335938 121.128906 L 163.351562 121.101562 L 163.445312 120.960938 L 163.460938 120.933594 L 163.492188 120.886719 L 163.871094 120.3125 L 163.996094 120.125 L 164.011719 120.097656 L 164.027344 120.078125 L 164.042969 120.050781 L 164.089844 119.980469 L 164.125 119.933594 L 164.140625 119.914062 L 164.171875 119.867188 L 164.183594 119.847656 L 164.199219 119.824219 L 164.214844 119.804688 L 164.230469 119.78125 C 164.484375 119.402344 164.734375 119.027344 164.992188 118.65625 L 165.011719 118.636719 L 165.023438 118.613281 L 165.039062 118.59375 L 165.054688 118.570312 L 165.070312 118.550781 L 165.167969 118.40625 L 165.394531 118.085938 L 166.199219 116.945312 L 166.46875 116.582031 L 167.242188 115.523438 L 167.28125 115.46875 L 167.574219 115.074219 L 167.621094 115.019531 L 168.316406 114.101562 L 168.359375 114.046875 L 168.757812 113.535156 L 168.757812 113.53125 L 169.375 112.753906 L 169.417969 112.699219 L 169.894531 112.101562 L 170.515625 111.347656 L 170.613281 111.226562 L 171.015625 110.742188 L 171.054688 110.699219 L 171.085938 110.65625 L 171.105469 110.632812 L 171.125 110.613281 L 171.230469 110.484375 L 171.269531 110.441406 L 171.339844 110.355469 L 171.777344 109.84375 L 171.8125 109.800781 L 171.847656 109.761719 L 171.882812 109.714844 L 171.921875 109.671875 L 171.957031 109.632812 L 171.996094 109.589844 L 172.03125 109.546875 L 172.070312 109.503906 L 172.105469 109.460938 L 172.289062 109.25 L 172.324219 109.207031 L 172.363281 109.167969 L 172.398438 109.125 L 172.4375 109.082031 L 172.472656 109.039062 L 172.507812 109 L 172.585938 108.914062 L 172.65625 108.828125 L 172.695312 108.789062 L 172.730469 108.746094 L 172.769531 108.703125 L 172.804688 108.664062 L 172.84375 108.621094 L 172.878906 108.578125 L 172.917969 108.535156 L 172.957031 108.496094 L 173.027344 108.410156 L 173.066406 108.371094 L 173.105469 108.328125 L 173.140625 108.289062 L 173.179688 108.246094 L 173.214844 108.203125 L 173.289062 108.121094 L 173.328125 108.078125 L 173.363281 108.039062 L 173.621094 107.757812 L 173.632812 107.742188 L 173.679688 107.695312 L 173.691406 107.679688 L 173.707031 107.660156 L 173.738281 107.628906 L 173.75 107.613281 L 173.796875 107.566406 L 173.808594 107.550781 L 173.855469 107.503906 L 173.867188 107.488281 L 173.882812 107.472656 L 173.914062 107.4375 L 173.929688 107.421875 L 173.941406 107.40625 L 173.972656 107.375 L 174.015625 107.324219 L 174.03125 107.3125 L 174.046875 107.296875 L 174.0625 107.277344 L 174.074219 107.261719 L 174.121094 107.214844 L 174.132812 107.199219 L 174.210938 107.121094 L 174.222656 107.105469 L 174.238281 107.089844 L 174.25 107.074219 L 174.265625 107.054688 L 174.28125 107.042969 L 174.3125 107.011719 L 174.324219 106.992188 L 174.386719 106.929688 L 174.398438 106.914062 L 174.445312 106.867188 L 174.457031 106.851562 L 174.519531 106.789062 L 174.53125 106.773438 L 174.550781 106.753906 L 174.5625 106.738281 L 174.984375 106.292969 L 175.023438 106.253906 L 175.761719 105.476562 L 176.269531 104.957031 L 176.292969 104.929688 L 176.996094 104.214844 L 177.515625 103.695312 L 178.378906 102.859375 L 178.726562 102.523438 L 178.753906 102.496094 L 179.570312 101.730469 L 180.097656 101.242188 L 180.167969 101.171875 L 180.207031 101.140625 L 180.222656 101.121094 C 180.546875 100.824219 180.871094 100.53125 181.199219 100.242188 L 181.21875 100.226562 L 181.253906 100.191406 L 181.273438 100.175781 L 181.289062 100.160156 L 181.3125 100.140625 L 181.328125 100.125 L 181.34375 100.113281 L 181.511719 99.964844 L 182.542969 99.0625 L 182.628906 98.992188 L 183.15625 98.546875 L 183.957031 97.878906 L 184 97.84375 L 184.398438 97.519531 L 184.417969 97.503906 L 185.40625 96.707031 L 185.851562 96.355469 L 186.664062 95.726562 L 187.324219 95.226562 L 188.015625 94.710938 L 188.703125 94.207031 L 189.546875 93.609375 L 190.074219 93.234375 L 190.136719 93.1875 L 190.160156 93.171875 L 190.179688 93.160156 L 190.222656 93.132812 L 190.261719 93.101562 L 190.324219 93.0625 L 190.34375 93.046875 L 191.351562 92.359375 L 191.371094 92.34375 L 191.390625 92.332031 L 191.410156 92.316406 L 191.433594 92.304688 L 191.453125 92.289062 L 191.503906 92.253906 L 191.808594 92.058594 L 192.871094 91.363281 L 193.5 90.964844 L 193.519531 90.953125 L 194.355469 90.429688 L 194.378906 90.414062 L 194.945312 90.074219 L 195.828125 89.542969 L 196.445312 89.1875 L 196.476562 89.167969 L 197.421875 88.628906 L 197.457031 88.613281 L 197.867188 88.382812 L 198.921875 87.8125 L 198.933594 87.800781 L 199.464844 87.519531 L 200.683594 86.890625 L 200.945312 86.753906 L 200.96875 86.742188 L 200.992188 86.734375 L 201.085938 86.6875 L 201.109375 86.671875 L 201.132812 86.664062 L 201.179688 86.640625 L 201.203125 86.625 L 201.226562 86.617188 L 201.296875 86.582031 L 201.320312 86.566406 L 202.261719 86.109375 L 202.28125 86.097656 L 202.375 86.050781 L 202.398438 86.042969 L 202.539062 85.972656 L 202.9375 85.789062 L 203.035156 85.742188 L 204 85.296875 L 204.011719 85.292969 L 204.691406 84.992188 L 204.765625 84.957031 L 205.539062 84.617188 L 205.5625 84.609375 L 206.296875 84.300781 L 207.148438 83.949219 L 207.84375 83.667969 L 208.777344 83.308594 L 209.453125 83.050781 L 210.300781 82.742188 L 210.378906 82.714844 L 211.042969 82.476562 L 211.058594 82.472656 L 211.082031 82.464844 L 211.097656 82.457031 L 211.113281 82.453125 L 211.152344 82.4375 L 211.167969 82.433594 L 211.1875 82.425781 L 211.203125 82.417969 L 211.222656 82.414062 L 211.238281 82.40625 L 211.257812 82.402344 L 211.273438 82.394531 L 211.292969 82.390625 L 211.3125 82.382812 L 211.332031 82.378906 L 211.347656 82.371094 L 211.367188 82.367188 L 211.382812 82.359375 L 211.402344 82.355469 L 211.417969 82.347656 L 211.4375 82.34375 L 211.453125 82.335938 L 211.476562 82.328125 L 211.507812 82.320312 L 211.523438 82.3125 L 211.546875 82.304688 L 211.5625 82.300781 L 211.578125 82.292969 L 211.59375 82.289062 L 211.617188 82.28125 L 211.632812 82.273438 L 211.664062 82.265625 L 211.6875 82.257812 L 211.703125 82.253906 L 211.71875 82.246094 L 211.738281 82.238281 L 211.757812 82.234375 L 211.773438 82.226562 L 211.789062 82.222656 L 211.808594 82.214844 L 211.828125 82.210938 L 211.84375 82.203125 L 211.863281 82.199219 L 211.878906 82.191406 L 211.898438 82.1875 L 211.914062 82.179688 L 211.933594 82.171875 L 211.949219 82.167969 L 211.96875 82.160156 L 211.988281 82.15625 L 212.003906 82.148438 L 212.023438 82.144531 L 212.039062 82.136719 L 212.058594 82.132812 L 212.074219 82.125 L 212.09375 82.121094 L 212.113281 82.113281 L 212.128906 82.109375 L 212.148438 82.101562 L 212.164062 82.09375 L 212.183594 82.089844 L 212.589844 81.953125 L 212.695312 81.917969 L 212.722656 81.910156 L 212.746094 81.902344 L 212.769531 81.890625 L 212.796875 81.882812 L 213.980469 81.511719 L 214.003906 81.503906 L 214.03125 81.496094 L 214.054688 81.488281 L 214.082031 81.480469 L 214.105469 81.472656 L 214.132812 81.464844 L 214.15625 81.457031 L 214.175781 81.449219 L 214.179688 81.449219 L 214.207031 81.441406 L 214.230469 81.4375 L 214.257812 81.425781 L 214.28125 81.417969 L 214.476562 81.363281 L 214.523438 81.347656 L 214.546875 81.34375 L 214.570312 81.335938 L 214.589844 81.328125 L 214.613281 81.320312 L 214.640625 81.3125 L 214.664062 81.304688 L 214.683594 81.300781 L 214.730469 81.285156 L 214.753906 81.28125 L 214.773438 81.273438 L 214.800781 81.265625 L 214.847656 81.25 L 214.890625 81.238281 L 214.9375 81.222656 L 214.964844 81.214844 L 214.984375 81.210938 L 215.03125 81.195312 L 215.078125 81.183594 L 215.097656 81.175781 L 215.171875 81.15625 L 215.191406 81.148438 L 215.214844 81.140625 L 215.238281 81.136719 L 215.285156 81.121094 L 215.308594 81.117188 L 215.332031 81.109375 L 215.351562 81.101562 L 215.375 81.097656 L 215.402344 81.089844 L 215.421875 81.082031 L 215.445312 81.074219 L 215.46875 81.070312 L 215.5625 81.039062 L 215.585938 81.035156 L 215.609375 81.027344 L 215.769531 80.980469 L 215.796875 80.976562 L 215.816406 80.96875 L 215.839844 80.960938 L 215.863281 80.957031 L 215.910156 80.941406 L 215.933594 80.9375 L 215.957031 80.929688 L 216.339844 80.828125 L 217.546875 80.503906 L 217.554688 80.503906 L 218.136719 80.355469 L 219.242188 80.085938 L 219.890625 79.9375 L 219.921875 79.929688 L 220.90625 79.714844 L 221.546875 79.578125 L 222.667969 79.359375 L 223.273438 79.242188 L 223.300781 79.238281 L 223.324219 79.234375 L 223.351562 79.230469 L 223.375 79.226562 L 223.449219 79.210938 L 223.480469 79.207031 L 223.503906 79.203125 L 223.558594 79.195312 L 223.582031 79.1875 L 223.609375 79.183594 L 223.632812 79.179688 L 223.660156 79.175781 L 223.683594 79.171875 L 224.824219 78.976562 L 224.851562 78.96875 L 224.875 78.964844 L 224.929688 78.957031 L 224.972656 78.953125 L 224.996094 78.945312 L 225.019531 78.941406 L 225.042969 78.941406 L 225.066406 78.933594 L 226.351562 78.742188 L 226.398438 78.734375 L 226.425781 78.730469 L 226.449219 78.730469 L 226.476562 78.722656 L 226.5 78.722656 L 226.523438 78.71875 L 226.550781 78.714844 L 226.597656 78.707031 L 227.269531 78.621094 L 227.285156 78.617188 L 227.300781 78.617188 L 227.324219 78.613281 L 227.339844 78.613281 L 227.355469 78.609375 L 227.375 78.605469 L 227.390625 78.605469 L 227.410156 78.601562 L 227.425781 78.601562 L 227.441406 78.597656 L 227.460938 78.597656 L 227.476562 78.59375 L 227.496094 78.589844 L 227.511719 78.589844 L 227.53125 78.585938 L 227.546875 78.585938 L 227.566406 78.582031 L 227.582031 78.582031 L 227.597656 78.578125 L 227.617188 78.578125 L 227.636719 78.574219 L 227.652344 78.574219 L 227.667969 78.570312 L 227.6875 78.570312 L 227.71875 78.5625 L 227.738281 78.5625 L 227.757812 78.558594 L 227.773438 78.558594 L 227.792969 78.554688 L 227.824219 78.550781 L 227.84375 78.546875 L 227.859375 78.546875 L 227.878906 78.542969 L 228.25 78.5 L 228.265625 78.496094 L 228.300781 78.492188 L 228.320312 78.492188 L 228.339844 78.488281 L 228.355469 78.488281 L 228.371094 78.484375 L 228.390625 78.484375 L 228.957031 78.421875 L 230.082031 78.304688 L 230.085938 78.304688 L 230.765625 78.246094 L 231.875 78.152344 L 231.878906 78.152344 L 232.5 78.109375 L 233.566406 78.050781 L 233.613281 78.046875 L 234.296875 78.015625 L 234.316406 78.011719 L 234.351562 78.011719 L 234.394531 78.007812 L 234.414062 78.007812 L 234.8125 77.992188 L 234.910156 77.992188 L 234.953125 77.988281 L 235.105469 77.988281 L 235.128906 77.984375 L 235.246094 77.984375 L 235.265625 77.980469 L 235.386719 77.980469 L 235.402344 77.976562 L 235.5625 77.976562 L 236 77.960938 L 236.027344 77.960938 L 236.058594 77.957031 L 236.28125 77.957031 L 236.335938 77.953125 L 236.363281 77.953125 C 236.796875 77.945312 237.226562 77.941406 237.652344 77.941406 L 237.835938 77.941406 Z M 237.835938 77.917969 " clip-rule="nonzero"/></clipPath><linearGradient x1="300.510792" gradientTransform="matrix(0.730266, 0, 0, 0.730266, 4.927788, 65.544438)" y1="242.059518" x2="336.327267" gradientUnits="userSpaceOnUse" y2="0.700384" id="b77c652b63"><stop stop-opacity="1" stop-color="rgb(100%, 76.098633%, 21.998596%)" offset="0"/><stop stop-opacity="1" stop-color="rgb(100%, 76.098633%, 21.998596%)" offset="0.153251"/><stop stop-opacity="1" stop-color="rgb(100%, 76.098633%, 21.998596%)" offset="0.25"/><stop stop-opacity="1" stop-color="rgb(100%, 76.098633%, 21.998596%)" offset="0.375"/><stop stop-opacity="1" stop-color="rgb(100%, 76.098633%, 21.998596%)" offset="0.4375"/><stop stop-opacity="1" stop-color="rgb(99.969482%, 76.043701%, 21.879578%)" offset="0.453125"/><stop stop-opacity="1" stop-color="rgb(99.897766%, 75.906372%, 21.586609%)" offset="0.46875"/><stop stop-opacity="1" stop-color="rgb(99.810791%, 75.741577%, 21.234131%)" offset="0.484375"/><stop stop-opacity="1" stop-color="rgb(99.723816%, 75.576782%, 20.883179%)" offset="0.5"/><stop stop-opacity="1" stop-color="rgb(99.638367%, 75.411987%, 20.532227%)" offset="0.515625"/><stop stop-opacity="1" stop-color="rgb(99.551392%, 75.247192%, 20.179749%)" offset="0.53125"/><stop stop-opacity="1" stop-color="rgb(99.464417%, 75.082397%, 19.828796%)" offset="0.546875"/><stop stop-opacity="1" stop-color="rgb(99.378967%, 74.917603%, 19.477844%)" offset="0.5625"/><stop stop-opacity="1" stop-color="rgb(99.291992%, 74.754333%, 19.125366%)" offset="0.578125"/><stop stop-opacity="1" stop-color="rgb(99.205017%, 74.589539%, 18.774414%)" offset="0.59375"/><stop stop-opacity="1" stop-color="rgb(99.118042%, 74.424744%, 18.421936%)" offset="0.609375"/><stop stop-opacity="1" stop-color="rgb(99.032593%, 74.259949%, 18.070984%)" offset="0.625"/><stop stop-opacity="1" stop-color="rgb(98.945618%, 74.095154%, 17.720032%)" offset="0.640625"/><stop stop-opacity="1" stop-color="rgb(98.858643%, 73.930359%, 17.367554%)" offset="0.65625"/><stop stop-opacity="1" stop-color="rgb(98.773193%, 73.765564%, 17.016602%)" offset="0.671875"/><stop stop-opacity="1" stop-color="rgb(98.686218%, 73.600769%, 16.664124%)" offset="0.6875"/><stop stop-opacity="1" stop-color="rgb(98.599243%, 73.4375%, 16.313171%)" offset="0.703125"/><stop stop-opacity="1" stop-color="rgb(98.513794%, 73.272705%, 15.962219%)" offset="0.71875"/><stop stop-opacity="1" stop-color="rgb(98.426819%, 73.10791%, 15.609741%)" offset="0.734375"/><stop stop-opacity="1" stop-color="rgb(98.339844%, 72.943115%, 15.258789%)" offset="0.75"/><stop stop-opacity="1" stop-color="rgb(98.254395%, 72.77832%, 14.907837%)" offset="0.765625"/><stop stop-opacity="1" stop-color="rgb(98.167419%, 72.613525%, 14.555359%)" offset="0.78125"/><stop stop-opacity="1" stop-color="rgb(98.080444%, 72.44873%, 14.204407%)" offset="0.796875"/><stop stop-opacity="1" stop-color="rgb(97.994995%, 72.283936%, 13.851929%)" offset="0.8125"/><stop stop-opacity="1" stop-color="rgb(97.90802%, 72.120667%, 13.500977%)" offset="0.828125"/><stop stop-opacity="1" stop-color="rgb(97.821045%, 71.955872%, 13.150024%)" offset="0.84375"/><stop stop-opacity="1" stop-color="rgb(97.735596%, 71.791077%, 12.797546%)" offset="0.846749"/><stop stop-opacity="1" stop-color="rgb(97.692871%, 71.708679%, 12.62207%)" offset="0.859375"/><stop stop-opacity="1" stop-color="rgb(97.648621%, 71.626282%, 12.446594%)" offset="0.875"/><stop stop-opacity="1" stop-color="rgb(97.561646%, 71.461487%, 12.095642%)" offset="0.890625"/><stop stop-opacity="1" stop-color="rgb(97.476196%, 71.296692%, 11.743164%)" offset="0.90625"/><stop stop-opacity="1" stop-color="rgb(97.389221%, 71.131897%, 11.392212%)" offset="0.921875"/><stop stop-opacity="1" stop-color="rgb(97.302246%, 70.967102%, 11.039734%)" offset="0.9375"/><stop stop-opacity="1" stop-color="rgb(97.216797%, 70.803833%, 10.688782%)" offset="0.953125"/><stop stop-opacity="1" stop-color="rgb(97.129822%, 70.639038%, 10.33783%)" offset="0.96875"/><stop stop-opacity="1" stop-color="rgb(97.042847%, 70.474243%, 9.985352%)" offset="0.984375"/><stop stop-opacity="1" stop-color="rgb(96.955872%, 70.309448%, 9.634399%)" offset="1"/></linearGradient><clipPath id="a140c4b11b"><path d="M 4.929688 65.675781 L 370.179688 65.675781 L 370.179688 309 L 4.929688 309 Z M 4.929688 65.675781 " clip-rule="nonzero"/></clipPath></defs><path fill="#f7b318" d="M 237.835938 77.917969 L 238.140625 77.917969 L 238.175781 77.921875 L 238.722656 77.921875 L 238.746094 77.925781 L 239.121094 77.925781 L 239.160156 77.929688 L 239.308594 77.929688 L 239.3125 77.933594 L 239.601562 77.933594 L 239.613281 77.9375 L 239.796875 77.9375 L 239.804688 77.941406 L 239.953125 77.941406 L 240.066406 77.945312 L 240.089844 77.945312 L 240.101562 77.949219 L 240.214844 77.949219 L 240.253906 77.953125 L 240.425781 77.953125 L 240.460938 77.957031 L 240.601562 77.957031 L 240.636719 77.960938 L 240.707031 77.960938 L 240.742188 77.964844 L 240.847656 77.964844 L 240.871094 77.96875 L 240.984375 77.96875 L 241.023438 77.972656 L 241.089844 77.972656 L 241.125 77.976562 L 241.160156 77.976562 L 241.164062 77.980469 L 241.265625 77.980469 L 241.300781 77.984375 L 241.371094 77.984375 L 241.40625 77.988281 L 241.441406 77.988281 L 241.457031 77.992188 L 241.550781 77.992188 L 241.578125 77.996094 L 241.652344 77.996094 L 241.6875 78 L 241.71875 78 L 241.746094 78.003906 L 241.828125 78.003906 L 241.84375 78.007812 L 241.941406 78.007812 L 241.964844 78.011719 L 242 78.011719 L 242.035156 78.015625 L 242.105469 78.015625 L 242.136719 78.019531 L 242.171875 78.019531 L 242.210938 78.023438 L 242.242188 78.023438 L 242.277344 78.027344 L 242.328125 78.027344 L 242.347656 78.03125 L 242.382812 78.03125 L 242.417969 78.035156 L 242.453125 78.035156 L 242.488281 78.039062 L 242.523438 78.039062 L 242.621094 78.046875 L 242.714844 78.050781 L 242.746094 78.050781 L 242.800781 78.058594 L 242.886719 78.058594 L 242.910156 78.0625 L 242.914062 78.0625 L 242.941406 78.066406 L 243 78.066406 L 242.996094 78.066406 L 243.046875 78.070312 L 243.074219 78.074219 L 243.132812 78.074219 L 243.15625 78.078125 L 243.1875 78.078125 L 243.1875 78.082031 L 243.242188 78.082031 L 243.378906 78.09375 L 243.386719 78.09375 L 243.441406 78.097656 L 243.476562 78.097656 L 244.347656 78.167969 L 244.378906 78.171875 L 244.433594 78.171875 L 244.464844 78.175781 L 244.492188 78.175781 L 244.519531 78.179688 L 245.664062 78.285156 L 245.695312 78.285156 L 246.878906 78.410156 L 246.886719 78.410156 L 247.96875 78.539062 L 249.132812 78.695312 L 250.3125 78.867188 L 251.4375 79.054688 L 252.574219 79.253906 L 253.691406 79.46875 L 253.695312 79.46875 L 254.808594 79.695312 L 254.824219 79.699219 L 256.03125 79.972656 L 257.019531 80.203125 L 257.050781 80.210938 L 258.257812 80.519531 L 258.273438 80.519531 L 259.25 80.777344 L 260.429688 81.113281 L 261.496094 81.425781 L 261.519531 81.433594 L 262.457031 81.730469 L 262.535156 81.753906 L 263.703125 82.132812 L 264.621094 82.453125 L 264.640625 82.457031 L 264.664062 82.464844 L 264.679688 82.46875 L 264.699219 82.480469 L 264.71875 82.484375 L 264.738281 82.492188 L 264.757812 82.496094 L 264.773438 82.503906 L 264.851562 82.53125 L 264.867188 82.535156 L 265.773438 82.855469 L 265.8125 82.871094 L 265.832031 82.875 L 265.847656 82.882812 L 265.851562 82.882812 L 266.78125 83.234375 L 266.882812 83.273438 L 267.960938 83.6875 L 267.976562 83.695312 L 267.996094 83.703125 L 268.011719 83.710938 L 268.03125 83.71875 L 268.050781 83.722656 L 268.160156 83.769531 L 268.175781 83.777344 L 268.234375 83.800781 L 268.25 83.804688 L 268.289062 83.820312 L 268.304688 83.828125 L 268.324219 83.835938 L 268.339844 83.84375 L 268.359375 83.851562 L 268.375 83.855469 L 268.394531 83.867188 L 268.414062 83.875 L 268.433594 83.878906 L 268.449219 83.886719 L 268.46875 83.894531 L 268.484375 83.902344 L 268.523438 83.917969 L 268.539062 83.925781 L 268.558594 83.933594 L 268.574219 83.941406 L 268.613281 83.957031 L 268.628906 83.964844 L 268.648438 83.972656 L 268.667969 83.976562 L 268.683594 83.988281 L 268.703125 83.992188 L 268.722656 84 L 268.738281 84.007812 L 268.757812 84.019531 L 268.773438 84.023438 L 268.792969 84.03125 L 268.808594 84.039062 L 268.828125 84.046875 L 268.84375 84.054688 L 268.902344 84.078125 L 268.917969 84.082031 L 268.9375 84.09375 L 268.953125 84.101562 L 268.972656 84.109375 L 268.992188 84.113281 L 269.007812 84.121094 L 269.027344 84.128906 L 269.042969 84.136719 L 269.082031 84.152344 L 269.113281 84.167969 L 270.035156 84.546875 L 270.054688 84.558594 L 270.074219 84.566406 L 270.089844 84.574219 L 270.113281 84.582031 L 270.132812 84.59375 L 270.230469 84.632812 L 270.25 84.644531 L 270.269531 84.652344 L 270.292969 84.660156 L 270.308594 84.671875 L 270.328125 84.675781 L 270.347656 84.6875 L 270.371094 84.695312 L 270.386719 84.703125 L 270.40625 84.714844 L 270.425781 84.722656 L 270.566406 84.785156 L 270.585938 84.792969 L 270.824219 84.898438 L 270.84375 84.90625 L 270.945312 84.953125 L 270.960938 84.960938 L 270.980469 84.96875 L 271.042969 84.996094 L 271.0625 85.007812 L 271.082031 85.011719 L 271.101562 85.023438 L 271.121094 85.03125 L 271.140625 85.042969 L 271.179688 85.058594 L 271.199219 85.070312 L 271.238281 85.085938 L 271.257812 85.097656 L 271.296875 85.113281 L 272.136719 85.488281 L 272.191406 85.515625 L 272.210938 85.523438 L 272.257812 85.546875 L 272.285156 85.558594 L 272.355469 85.59375 L 272.382812 85.605469 L 272.40625 85.617188 L 273.59375 86.183594 L 273.664062 86.21875 L 273.6875 86.234375 L 273.714844 86.242188 L 274.160156 86.457031 L 274.210938 86.480469 C 274.839844 86.792969 275.464844 87.109375 276.085938 87.4375 L 276.210938 87.5 L 276.238281 87.515625 L 276.269531 87.53125 C 276.882812 87.855469 277.488281 88.183594 278.089844 88.523438 L 278.183594 88.570312 L 278.226562 88.597656 L 279.167969 89.140625 L 279.183594 89.152344 L 279.203125 89.160156 L 279.21875 89.171875 L 279.25 89.1875 L 279.265625 89.199219 L 279.296875 89.214844 L 279.316406 89.226562 L 279.332031 89.234375 L 279.347656 89.246094 L 279.363281 89.253906 L 279.382812 89.265625 L 279.394531 89.273438 L 279.410156 89.28125 L 279.429688 89.292969 L 279.460938 89.308594 L 279.492188 89.332031 L 279.539062 89.355469 L 279.558594 89.367188 L 279.574219 89.375 L 279.589844 89.386719 L 279.605469 89.394531 L 279.621094 89.40625 L 279.636719 89.414062 L 279.652344 89.425781 L 279.667969 89.433594 L 279.6875 89.441406 L 279.703125 89.453125 L 279.714844 89.460938 L 279.75 89.480469 L 279.769531 89.488281 L 279.785156 89.5 L 279.816406 89.519531 L 279.832031 89.527344 L 279.851562 89.539062 L 279.863281 89.546875 L 279.878906 89.554688 L 279.894531 89.566406 L 279.914062 89.574219 L 279.929688 89.585938 L 279.945312 89.59375 L 279.960938 89.605469 L 279.976562 89.613281 L 279.992188 89.625 L 280.007812 89.632812 L 280.027344 89.640625 L 280.042969 89.652344 L 280.058594 89.660156 L 280.074219 89.671875 L 280.105469 89.6875 L 280.121094 89.699219 L 280.136719 89.707031 L 280.152344 89.71875 L 280.171875 89.730469 L 280.203125 89.746094 L 280.21875 89.757812 L 280.234375 89.765625 L 280.246094 89.777344 L 280.308594 89.8125 L 280.324219 89.820312 L 280.78125 90.101562 L 280.796875 90.113281 L 280.828125 90.128906 L 280.84375 90.140625 L 280.859375 90.148438 L 280.875 90.160156 L 280.890625 90.167969 L 280.90625 90.179688 L 280.921875 90.1875 L 280.9375 90.199219 L 280.953125 90.207031 L 280.964844 90.214844 L 280.980469 90.226562 L 280.996094 90.234375 L 281.011719 90.246094 L 281.027344 90.253906 L 281.042969 90.265625 L 281.074219 90.28125 L 281.085938 90.292969 L 281.101562 90.300781 L 281.121094 90.3125 L 281.132812 90.320312 L 281.152344 90.328125 L 281.164062 90.339844 L 281.179688 90.347656 L 282.15625 90.949219 L 283.089844 91.554688 L 283.105469 91.5625 L 283.121094 91.574219 L 283.136719 91.582031 L 283.183594 91.617188 L 283.214844 91.632812 L 283.230469 91.644531 L 283.292969 91.6875 L 283.3125 91.699219 L 283.324219 91.707031 L 283.34375 91.71875 L 283.359375 91.726562 L 283.390625 91.75 L 283.40625 91.757812 L 283.4375 91.78125 L 283.453125 91.789062 L 283.46875 91.800781 L 283.484375 91.808594 L 283.53125 91.84375 L 283.546875 91.851562 L 283.5625 91.863281 L 283.582031 91.875 L 283.59375 91.882812 L 283.644531 91.914062 L 283.660156 91.925781 L 283.675781 91.933594 L 283.707031 91.957031 L 283.742188 91.976562 L 283.753906 91.984375 L 283.773438 91.996094 L 283.785156 92.007812 L 283.800781 92.015625 L 283.996094 92.140625 L 284.007812 92.152344 L 284.039062 92.175781 L 284.054688 92.183594 L 284.074219 92.191406 L 284.089844 92.207031 L 284.101562 92.214844 L 284.996094 92.824219 L 285.011719 92.839844 L 285.027344 92.847656 L 285.046875 92.859375 L 285.058594 92.871094 L 285.078125 92.882812 L 285.09375 92.894531 L 285.109375 92.902344 L 285.15625 92.9375 L 285.171875 92.945312 L 285.1875 92.957031 L 285.203125 92.972656 L 285.21875 92.980469 L 285.238281 92.992188 L 285.253906 93 L 285.265625 93.015625 L 285.285156 93.027344 L 285.300781 93.035156 L 285.316406 93.046875 L 285.332031 93.054688 L 285.347656 93.070312 L 285.363281 93.078125 L 285.425781 93.125 L 285.457031 93.144531 L 285.503906 93.179688 L 285.917969 93.464844 L 285.996094 93.523438 L 286.015625 93.535156 L 286.847656 94.128906 L 286.863281 94.144531 L 286.910156 94.179688 L 286.925781 94.1875 L 286.941406 94.203125 L 286.957031 94.214844 L 286.972656 94.222656 L 286.992188 94.234375 L 287.007812 94.25 L 287.101562 94.320312 L 287.121094 94.332031 L 287.136719 94.34375 L 287.152344 94.351562 L 287.308594 94.46875 L 287.328125 94.480469 L 287.339844 94.492188 L 287.757812 94.796875 L 287.773438 94.808594 L 287.792969 94.820312 L 287.804688 94.832031 L 287.824219 94.84375 L 287.855469 94.867188 L 287.871094 94.882812 L 288.796875 95.578125 L 288.871094 95.640625 L 289.699219 96.269531 L 289.703125 96.277344 L 290.617188 97.003906 L 291.527344 97.738281 L 291.53125 97.742188 L 292.441406 98.503906 L 292.484375 98.535156 L 293.246094 99.1875 L 293.285156 99.21875 L 294.183594 100.003906 L 295.078125 100.804688 L 295.089844 100.816406 L 295.890625 101.554688 L 296.796875 102.40625 L 297.628906 103.207031 L 298.453125 104.019531 L 299.316406 104.886719 L 300.105469 105.703125 L 300.9375 106.582031 L 301.71875 107.429688 L 301.738281 107.449219 L 302.542969 108.339844 L 303.34375 109.253906 L 304.066406 110.089844 L 304.898438 111.082031 L 305.640625 111.976562 L 306.390625 112.921875 L 307.09375 113.8125 L 307.859375 114.816406 L 307.875 114.835938 L 308.582031 115.777344 L 309.320312 116.796875 L 309.964844 117.695312 L 310.773438 118.855469 L 311.351562 119.707031 L 311.363281 119.722656 L 311.613281 120.09375 L 311.636719 120.132812 L 311.652344 120.148438 L 311.664062 120.171875 L 311.675781 120.1875 L 311.699219 120.226562 L 311.714844 120.246094 L 311.726562 120.261719 L 311.738281 120.28125 L 311.753906 120.300781 L 311.761719 120.320312 L 311.777344 120.335938 L 311.785156 120.355469 L 311.800781 120.375 L 311.824219 120.414062 L 311.839844 120.433594 L 311.851562 120.449219 L 311.875 120.488281 L 311.886719 120.503906 L 311.898438 120.523438 L 311.914062 120.542969 L 311.925781 120.558594 L 311.9375 120.578125 L 311.953125 120.597656 L 311.976562 120.636719 L 311.992188 120.652344 L 312 120.671875 L 312.015625 120.691406 L 312.050781 120.75 L 312.066406 120.765625 L 312.101562 120.824219 L 312.113281 120.839844 L 312.128906 120.859375 L 312.140625 120.878906 L 312.152344 120.894531 L 312.703125 121.742188 L 312.71875 121.761719 L 312.726562 121.78125 L 312.757812 121.820312 L 312.78125 121.859375 L 312.796875 121.878906 L 312.832031 121.9375 L 312.847656 121.957031 L 312.871094 121.996094 L 312.882812 122.019531 L 312.898438 122.039062 L 312.910156 122.054688 L 312.921875 122.078125 L 312.933594 122.09375 L 312.960938 122.136719 L 312.972656 122.15625 L 313.234375 122.574219 L 313.292969 122.671875 L 313.308594 122.691406 L 313.355469 122.769531 L 313.371094 122.792969 L 313.40625 122.851562 L 313.421875 122.871094 L 313.46875 122.949219 L 313.484375 122.96875 L 313.496094 122.988281 L 313.507812 123.011719 L 314.011719 123.816406 L 314.042969 123.871094 L 314.121094 123.996094 L 314.136719 124.027344 C 314.488281 124.609375 314.835938 125.191406 315.179688 125.777344 L 315.199219 125.8125 L 315.214844 125.84375 L 315.253906 125.90625 L 315.269531 125.933594 L 315.347656 126.066406 C 315.691406 126.667969 316.035156 127.273438 316.371094 127.878906 L 316.40625 127.949219 L 316.445312 128.015625 L 316.457031 128.035156 L 316.484375 128.085938 L 316.523438 128.152344 C 316.84375 128.738281 317.160156 129.328125 317.472656 129.925781 L 317.507812 129.992188 L 317.542969 130.0625 L 317.582031 130.132812 L 317.605469 130.171875 L 317.617188 130.199219 L 317.652344 130.269531 L 318.019531 130.984375 L 318.03125 131.007812 L 318.039062 131.03125 L 318.054688 131.054688 L 318.089844 131.125 L 318.101562 131.144531 L 318.117188 131.171875 L 318.128906 131.191406 L 318.175781 131.285156 L 318.1875 131.3125 L 318.222656 131.378906 L 318.292969 131.519531 L 318.304688 131.539062 L 318.34375 131.613281 L 318.355469 131.632812 L 318.484375 131.890625 L 318.496094 131.910156 L 318.53125 131.980469 L 318.546875 132.003906 L 318.558594 132.03125 L 318.566406 132.050781 L 318.582031 132.074219 L 318.6875 132.285156 L 318.734375 132.375 L 318.746094 132.398438 L 318.757812 132.425781 L 318.769531 132.449219 L 318.78125 132.46875 L 319.222656 133.386719 L 319.234375 133.40625 L 319.246094 133.429688 L 319.253906 133.449219 L 319.265625 133.46875 L 319.273438 133.488281 L 319.285156 133.507812 L 319.296875 133.53125 L 319.304688 133.550781 L 319.335938 133.613281 L 319.347656 133.632812 L 319.355469 133.652344 L 319.367188 133.671875 L 319.378906 133.695312 L 319.386719 133.714844 L 319.398438 133.734375 L 319.40625 133.753906 L 319.417969 133.773438 L 319.429688 133.796875 L 319.4375 133.816406 L 319.449219 133.835938 L 319.457031 133.859375 L 319.480469 133.898438 L 319.488281 133.917969 L 319.5 133.941406 L 319.507812 133.960938 L 319.53125 134 L 319.539062 134.023438 L 319.5625 134.0625 L 319.570312 134.082031 L 319.582031 134.105469 L 319.59375 134.125 L 319.601562 134.144531 L 319.609375 134.167969 L 319.644531 134.226562 L 319.652344 134.25 L 319.664062 134.269531 L 319.671875 134.289062 L 319.683594 134.308594 L 319.703125 134.351562 L 319.710938 134.371094 L 319.734375 134.414062 L 319.742188 134.433594 L 319.753906 134.457031 L 319.820312 134.601562 L 319.832031 134.621094 L 319.839844 134.640625 L 319.851562 134.664062 L 319.859375 134.683594 L 319.871094 134.703125 L 320.34375 135.738281 L 320.359375 135.777344 L 320.371094 135.796875 L 320.378906 135.816406 L 320.390625 135.835938 L 320.40625 135.875 L 320.417969 135.894531 L 320.425781 135.914062 L 320.445312 135.953125 L 320.460938 135.992188 L 320.472656 136.011719 L 320.480469 136.03125 L 320.492188 136.046875 L 320.5 136.070312 L 320.511719 136.085938 L 320.519531 136.109375 L 320.527344 136.128906 L 320.539062 136.148438 L 320.542969 136.167969 L 320.554688 136.1875 L 320.566406 136.203125 L 320.574219 136.226562 L 320.589844 136.265625 L 320.613281 136.304688 L 320.617188 136.324219 L 320.640625 136.363281 L 320.664062 136.421875 L 320.675781 136.441406 L 320.691406 136.480469 L 320.703125 136.5 L 320.71875 136.539062 L 320.730469 136.558594 L 320.738281 136.578125 L 320.75 136.597656 L 320.753906 136.617188 L 320.765625 136.636719 L 320.773438 136.65625 L 320.792969 136.695312 L 320.800781 136.714844 L 320.855469 136.832031 L 320.863281 136.851562 L 320.871094 136.875 L 320.882812 136.894531 L 320.90625 136.953125 L 320.917969 136.972656 L 320.925781 136.992188 L 321.375 138.027344 L 321.421875 138.140625 L 321.90625 139.289062 L 322.371094 140.425781 L 322.390625 140.464844 L 322.851562 141.621094 L 322.859375 141.640625 L 323.273438 142.71875 L 323.28125 142.742188 L 323.761719 144.019531 L 323.761719 144.023438 L 324.160156 145.132812 L 324.621094 146.445312 L 324.980469 147.515625 L 325 147.574219 L 325.425781 148.890625 L 325.78125 150.027344 L 325.792969 150.0625 L 326.164062 151.292969 L 326.515625 152.507812 L 326.878906 153.820312 L 327.1875 154.96875 L 327.199219 155.015625 L 327.527344 156.304688 L 327.53125 156.320312 L 327.84375 157.597656 L 327.855469 157.632812 L 328.105469 158.710938 L 328.113281 158.75 L 328.417969 160.132812 L 328.417969 160.136719 L 328.683594 161.394531 L 328.941406 162.6875 L 329.171875 163.914062 L 329.421875 165.324219 L 329.617188 166.503906 L 329.625 166.550781 L 329.835938 167.882812 L 329.839844 167.914062 L 330.03125 169.242188 L 330.03125 169.246094 L 330.207031 170.554688 L 330.351562 171.761719 L 330.363281 171.867188 L 330.515625 173.175781 L 330.660156 174.640625 L 330.777344 175.875 L 330.886719 177.332031 L 330.890625 177.367188 L 330.976562 178.558594 L 330.976562 178.601562 L 330.980469 178.625 L 330.980469 178.644531 L 330.984375 178.667969 L 330.984375 178.691406 L 330.988281 178.757812 L 330.988281 178.777344 L 330.996094 178.867188 L 330.996094 178.890625 L 331 178.910156 L 331 178.953125 L 331.003906 178.976562 L 331.003906 179.023438 L 331.007812 179.042969 L 331.007812 179.089844 L 331.011719 179.109375 L 331.011719 179.195312 L 331.015625 179.222656 L 331.015625 179.242188 L 331.019531 179.265625 L 331.019531 179.332031 L 331.023438 179.351562 L 331.023438 179.398438 L 331.027344 179.417969 L 331.027344 179.464844 L 331.03125 179.484375 L 331.03125 179.53125 L 331.035156 179.550781 L 331.035156 179.617188 L 331.039062 179.640625 L 331.039062 179.664062 L 331.042969 179.6875 L 331.042969 179.730469 L 331.046875 179.75 L 331.046875 179.839844 L 331.050781 179.863281 L 331.050781 179.929688 L 331.054688 179.949219 L 331.054688 179.972656 L 331.058594 179.992188 L 331.058594 180.054688 L 331.0625 180.078125 L 331.0625 180.097656 L 331.066406 180.117188 L 331.066406 180.179688 L 331.070312 180.203125 L 331.070312 180.21875 L 331.074219 180.261719 L 331.074219 180.304688 L 331.078125 180.367188 L 331.078125 180.410156 L 331.125 181.230469 L 331.125 181.289062 L 331.128906 181.3125 L 331.128906 181.378906 L 331.132812 181.421875 L 331.132812 181.460938 L 331.136719 181.5 C 331.164062 182.296875 331.191406 183.105469 331.210938 183.90625 L 331.214844 183.949219 L 331.214844 184.15625 L 331.21875 184.199219 L 331.21875 184.289062 C 331.230469 185.0625 331.242188 185.839844 331.242188 186.628906 L 331.242188 186.882812 C 331.242188 187.574219 331.234375 188.257812 331.222656 188.945312 L 331.222656 189.175781 L 331.21875 189.191406 L 331.21875 189.3125 L 331.214844 189.351562 L 331.1875 190.332031 L 331.1875 190.363281 L 331.132812 192 L 331.082031 193.082031 L 331.082031 193.105469 L 331 194.601562 L 330.933594 195.65625 L 330.929688 195.679688 L 330.8125 197.226562 L 330.722656 198.308594 L 330.71875 198.332031 L 330.71875 198.355469 L 330.710938 198.402344 L 330.710938 198.429688 L 330.707031 198.449219 L 330.648438 199.054688 L 330.648438 199.078125 L 330.644531 199.125 L 330.640625 199.148438 L 330.636719 199.195312 L 330.632812 199.21875 L 330.628906 199.246094 L 330.628906 199.269531 L 330.621094 199.316406 L 330.621094 199.339844 L 330.613281 199.386719 L 330.613281 199.414062 L 330.609375 199.4375 L 330.609375 199.460938 L 330.605469 199.484375 L 330.605469 199.507812 L 330.597656 199.554688 L 330.597656 199.578125 L 330.589844 199.625 L 330.589844 199.652344 L 330.578125 199.722656 L 330.578125 199.746094 L 330.574219 199.773438 L 330.574219 199.816406 L 330.570312 199.84375 L 330.464844 200.832031 L 330.464844 200.867188 L 330.457031 200.898438 L 330.453125 200.929688 L 330.453125 200.964844 L 330.449219 200.996094 L 330.445312 201.03125 L 330.445312 201.039062 L 330.4375 201.097656 L 330.429688 201.160156 L 330.425781 201.195312 L 330.417969 201.226562 L 330.417969 201.257812 L 330.414062 201.292969 L 330.402344 201.386719 L 330.265625 202.527344 L 330.257812 202.558594 L 330.253906 202.59375 L 330.25 202.65625 L 330.242188 202.6875 L 330.238281 202.71875 L 330.230469 202.789062 L 330.21875 202.882812 L 330.214844 202.917969 L 330.160156 203.339844 L 330.160156 203.367188 L 330.140625 203.5 L 330.132812 203.535156 L 330.132812 203.574219 L 330.125 203.609375 L 330.117188 203.6875 L 330.109375 203.722656 L 329.878906 205.371094 L 329.871094 205.410156 L 329.859375 205.484375 L 329.855469 205.523438 L 329.847656 205.558594 L 329.839844 205.636719 L 329.832031 205.683594 L 329.828125 205.710938 L 329.820312 205.746094 L 329.816406 205.785156 L 329.8125 205.820312 L 329.796875 205.898438 L 329.695312 206.53125 L 329.691406 206.5625 L 329.6875 206.589844 L 329.679688 206.621094 L 329.675781 206.648438 L 329.664062 206.707031 L 329.660156 206.738281 L 329.660156 206.769531 L 329.652344 206.796875 L 329.644531 206.859375 L 329.636719 206.890625 L 329.632812 206.917969 L 329.625 206.980469 L 329.617188 207.007812 L 329.613281 207.035156 L 329.609375 207.066406 L 329.601562 207.097656 L 329.597656 207.128906 L 329.59375 207.15625 L 329.585938 207.21875 L 329.578125 207.246094 L 329.574219 207.277344 L 329.570312 207.304688 L 329.5625 207.335938 L 329.558594 207.367188 L 329.554688 207.394531 L 329.550781 207.425781 L 329.542969 207.453125 L 329.535156 207.515625 L 329.523438 207.574219 L 329.519531 207.605469 C 329.476562 207.851562 329.441406 208.105469 329.394531 208.347656 L 329.386719 208.378906 L 329.382812 208.40625 L 329.378906 208.4375 L 329.234375 209.242188 L 329.230469 209.265625 L 329.226562 209.292969 L 329.21875 209.320312 L 329.210938 209.367188 L 329.207031 209.394531 L 329.199219 209.417969 L 329.1875 209.5 L 329.179688 209.523438 L 329.179688 209.550781 L 329.175781 209.574219 L 329.167969 209.597656 L 329.164062 209.625 L 329.15625 209.652344 L 329.152344 209.675781 L 329.148438 209.703125 L 329.144531 209.726562 L 329.136719 209.78125 L 329.121094 209.855469 L 329.113281 209.882812 L 328.972656 210.652344 L 328.964844 210.679688 L 328.960938 210.703125 L 328.957031 210.730469 L 328.949219 210.753906 L 328.945312 210.78125 L 328.941406 210.804688 L 328.933594 210.832031 L 328.929688 210.855469 L 328.925781 210.882812 L 328.734375 211.84375 L 328.40625 213.402344 L 328.210938 214.304688 L 328.203125 214.332031 L 328.199219 214.355469 L 328.175781 214.4375 L 328.175781 214.464844 L 328.167969 214.492188 L 327.984375 215.269531 L 327.980469 215.296875 L 327.972656 215.324219 L 327.96875 215.347656 L 327.953125 215.402344 L 327.949219 215.429688 L 327.941406 215.457031 L 327.9375 215.484375 L 327.914062 215.566406 L 327.910156 215.589844 L 327.902344 215.617188 L 327.898438 215.644531 L 327.882812 215.699219 L 327.878906 215.726562 L 327.871094 215.75 L 327.855469 215.804688 L 327.851562 215.832031 L 327.84375 215.859375 L 327.839844 215.886719 L 327.832031 215.910156 L 327.824219 215.9375 L 327.820312 215.964844 L 327.808594 215.992188 L 327.804688 216.019531 L 327.640625 216.722656 L 327.617188 216.804688 L 327.613281 216.832031 L 327.605469 216.863281 L 327.597656 216.890625 L 327.554688 217.0625 L 327.546875 217.089844 L 327.542969 217.117188 L 327.53125 217.148438 L 327.527344 217.175781 L 327.515625 217.203125 L 327.511719 217.234375 L 327.480469 217.34375 L 327.476562 217.371094 L 327.464844 217.402344 L 327.460938 217.429688 L 327.453125 217.457031 L 327.441406 217.484375 L 327.4375 217.515625 L 327.421875 217.570312 L 327.414062 217.601562 L 327.410156 217.628906 L 327.398438 217.65625 L 327.390625 217.683594 L 327.285156 218.109375 L 327.277344 218.136719 L 327.265625 218.164062 L 327.261719 218.191406 L 327.253906 218.21875 L 327.246094 218.25 L 327.203125 218.417969 L 327.195312 218.449219 L 327.1875 218.476562 L 327.179688 218.5 L 327.171875 218.53125 L 327.148438 218.609375 L 326.871094 219.65625 L 326.863281 219.683594 L 326.855469 219.714844 L 326.824219 219.824219 L 326.816406 219.855469 L 326.808594 219.882812 L 326.796875 219.914062 L 326.792969 219.941406 L 326.488281 221.027344 L 326.484375 221.058594 L 326.476562 221.085938 L 326.464844 221.113281 L 326.457031 221.144531 L 326.433594 221.226562 L 326.421875 221.257812 L 326.414062 221.285156 L 326.410156 221.3125 L 326.398438 221.339844 L 326.394531 221.367188 L 326.390625 221.371094 L 326.382812 221.398438 L 326.375 221.429688 L 326.367188 221.457031 L 326.355469 221.484375 L 326.097656 222.355469 L 325.636719 223.886719 L 325.632812 223.902344 L 325.363281 224.742188 L 325.359375 224.753906 L 324.867188 226.269531 L 324.859375 226.285156 L 324.578125 227.113281 L 324.570312 227.140625 L 324.058594 228.59375 L 324.058594 228.597656 L 323.746094 229.464844 L 323.746094 229.46875 L 323.175781 230.976562 L 322.886719 231.742188 L 322.878906 231.765625 L 322.867188 231.792969 L 322.855469 231.816406 L 322.847656 231.84375 L 322.835938 231.871094 L 322.824219 231.894531 L 322.816406 231.921875 L 322.804688 231.945312 L 322.753906 232.078125 L 322.742188 232.101562 L 322.730469 232.128906 L 322.722656 232.15625 L 322.710938 232.183594 L 322.699219 232.207031 L 322.691406 232.234375 L 322.679688 232.257812 L 322.667969 232.285156 L 322.660156 232.308594 L 322.636719 232.363281 L 322.625 232.386719 L 322.617188 232.414062 L 322.605469 232.441406 L 322.59375 232.464844 L 322.585938 232.492188 L 322.574219 232.515625 L 322.59375 232.59375 L 322.582031 232.617188 L 322.558594 232.671875 L 322.550781 232.695312 L 322.539062 232.722656 L 322.527344 232.746094 L 322.507812 232.796875 L 322.496094 232.824219 L 322.488281 232.851562 L 322.476562 232.875 L 322.464844 232.902344 L 322.453125 232.925781 L 322.441406 232.953125 L 322.433594 232.976562 L 322.410156 233.03125 L 322.402344 233.054688 L 322.390625 233.078125 L 322.367188 233.132812 L 322.359375 233.15625 L 322.335938 233.210938 L 322.324219 233.234375 L 322.316406 233.261719 L 322.304688 233.289062 L 322.28125 233.335938 L 322.273438 233.363281 L 322.261719 233.386719 L 322.238281 233.441406 L 321.984375 234.070312 L 321.984375 234.074219 L 321.972656 234.109375 L 321.957031 234.140625 C 321.710938 234.734375 321.460938 235.324219 321.203125 235.90625 L 321.191406 235.941406 L 321.175781 235.976562 L 321.164062 236.007812 L 321.144531 236.042969 L 321.132812 236.078125 L 321.121094 236.105469 L 321.117188 236.109375 L 321.070312 236.214844 L 321.054688 236.246094 L 320.78125 236.863281 L 320.746094 236.933594 L 320.734375 236.960938 L 320.726562 236.984375 L 320.703125 237.03125 L 320.691406 237.058594 L 320.65625 237.128906 L 320.648438 237.15625 L 320.632812 237.179688 L 320.625 237.207031 L 320.601562 237.253906 L 320.59375 237.277344 L 320.578125 237.304688 L 320.566406 237.328125 L 320.558594 237.351562 L 320.542969 237.375 L 320.53125 237.398438 L 320.523438 237.425781 L 320.488281 237.496094 L 320.476562 237.523438 L 320.464844 237.546875 L 320.457031 237.570312 L 320.441406 237.59375 L 320.433594 237.621094 L 320.398438 237.691406 L 320.386719 237.71875 L 320.363281 237.765625 L 320.355469 237.789062 L 320.339844 237.8125 L 320.320312 237.863281 L 320.308594 237.886719 L 320.140625 238.253906 L 320.128906 238.277344 L 320.117188 238.304688 L 320.070312 238.398438 L 320.0625 238.421875 L 319.667969 239.257812 L 319.664062 239.265625 L 319.039062 240.570312 L 319.035156 240.582031 L 318.597656 241.464844 L 317.980469 242.675781 L 317.503906 243.601562 L 316.808594 244.894531 L 316.773438 244.964844 L 316.410156 245.628906 L 316.363281 245.722656 L 316.34375 245.753906 L 316.328125 245.789062 L 316.3125 245.820312 L 316.292969 245.847656 L 316.238281 245.945312 L 316.222656 245.972656 L 316.207031 246.007812 L 316.1875 246.039062 L 316.140625 246.132812 L 316.117188 246.164062 L 316.085938 246.226562 L 315.394531 247.441406 L 315.378906 247.472656 L 315.359375 247.503906 L 315.34375 247.535156 L 315.324219 247.566406 L 315.308594 247.597656 L 315.289062 247.625 L 315.269531 247.667969 L 315.246094 247.699219 L 315.230469 247.734375 L 315.21875 247.757812 L 315.210938 247.765625 L 315.195312 247.796875 L 315.171875 247.828125 L 315.15625 247.863281 L 315.136719 247.894531 L 315.121094 247.925781 L 315.082031 247.988281 L 315.0625 248.023438 L 315.042969 248.054688 L 315.027344 248.085938 L 314.289062 249.328125 L 314.269531 249.359375 L 314.25 249.394531 L 314.230469 249.425781 L 314.214844 249.457031 L 314.191406 249.484375 L 314.175781 249.519531 L 314.136719 249.582031 L 314.121094 249.609375 L 314.101562 249.648438 L 314.078125 249.679688 L 314.0625 249.707031 L 313.664062 250.347656 L 313.648438 250.371094 L 313.636719 250.390625 L 313.621094 250.410156 L 313.609375 250.433594 L 313.59375 250.453125 L 313.582031 250.476562 L 313.570312 250.496094 L 313.554688 250.515625 L 313.542969 250.539062 L 313.527344 250.558594 L 313.515625 250.578125 L 313.503906 250.601562 L 313.488281 250.625 L 313.476562 250.644531 L 313.445312 250.683594 L 313.4375 250.707031 L 313.421875 250.730469 L 313.40625 250.75 L 313.394531 250.769531 L 313.378906 250.789062 L 313.367188 250.816406 L 313.351562 250.835938 L 313.328125 250.875 L 313.3125 250.898438 L 313.300781 250.914062 L 313.285156 250.9375 L 313.273438 250.960938 L 313.257812 250.980469 L 313.246094 251 L 313.234375 251.023438 L 313.21875 251.042969 L 313.207031 251.066406 L 313.175781 251.105469 L 313.164062 251.128906 L 313.148438 251.148438 L 313.136719 251.171875 L 313.125 251.191406 L 313.109375 251.210938 L 313.097656 251.234375 L 313.082031 251.253906 L 313.058594 251.296875 L 313.046875 251.316406 L 313.03125 251.335938 L 312.9375 251.488281 L 312.925781 251.507812 L 312.910156 251.527344 L 312.898438 251.546875 L 312.882812 251.570312 L 312.871094 251.589844 L 312.855469 251.613281 L 312.839844 251.628906 L 312.828125 251.652344 L 312.8125 251.675781 L 312.800781 251.695312 L 312.335938 252.40625 L 311.507812 253.664062 L 311.019531 254.386719 L 310.1875 255.59375 L 309.660156 256.34375 L 309.648438 256.359375 L 309.632812 256.382812 L 309.621094 256.402344 L 309.605469 256.417969 L 309.59375 256.4375 L 309.578125 256.453125 L 309.566406 256.476562 L 309.550781 256.492188 L 309.539062 256.511719 L 309 257.253906 L 308.988281 257.269531 L 308.972656 257.289062 L 308.957031 257.304688 L 308.945312 257.328125 L 308.890625 257.402344 L 308.875 257.417969 L 308.859375 257.441406 L 308.84375 257.460938 L 308.832031 257.476562 L 308.816406 257.496094 L 308.804688 257.515625 L 308.789062 257.535156 L 308.773438 257.550781 L 308.3125 258.183594 L 308.296875 258.207031 L 308.265625 258.246094 L 308.246094 258.265625 L 308.21875 258.308594 L 308.203125 258.328125 L 307.984375 258.617188 L 307.96875 258.640625 L 307.90625 258.71875 L 307.890625 258.742188 L 307.84375 258.800781 L 307.828125 258.824219 L 307.765625 258.902344 L 307.75 258.925781 L 307.6875 259.003906 L 307.671875 259.027344 L 307.609375 259.109375 L 307.546875 259.1875 L 307.53125 259.210938 L 307.484375 259.269531 L 307.453125 259.3125 L 307.4375 259.332031 L 307.40625 259.375 L 307.390625 259.394531 L 307.371094 259.414062 L 307.359375 259.429688 L 307.339844 259.453125 L 307.328125 259.476562 L 307.3125 259.496094 L 306.882812 260.050781 L 306.867188 260.074219 L 306.863281 260.082031 L 306.839844 260.105469 L 306.816406 260.136719 L 306.792969 260.164062 L 306.773438 260.191406 C 306.433594 260.625 306.089844 261.058594 305.742188 261.484375 L 305.71875 261.511719 L 305.699219 261.539062 L 305.675781 261.566406 L 305.65625 261.59375 L 305.609375 261.648438 L 305.5625 261.707031 L 305.558594 261.71875 L 305.542969 261.734375 L 305.519531 261.761719 L 305.476562 261.8125 L 305.472656 261.816406 L 305.453125 261.84375 L 305.246094 262.09375 L 305.222656 262.117188 L 305.207031 262.144531 L 305.1875 262.164062 L 305.148438 262.210938 L 305.132812 262.234375 L 305.109375 262.253906 L 305.09375 262.277344 L 304.6875 262.761719 L 304.671875 262.785156 L 304.632812 262.832031 L 304.613281 262.851562 L 304.574219 262.902344 L 304.554688 262.925781 L 304.539062 262.945312 L 304.480469 263.015625 L 304.460938 263.035156 L 304.441406 263.0625 L 304.421875 263.082031 L 304.40625 263.105469 L 304.363281 263.148438 L 304.347656 263.171875 L 304.328125 263.195312 L 304.308594 263.222656 L 304.09375 263.472656 L 304.074219 263.496094 L 304.058594 263.515625 L 304.015625 263.558594 L 303.519531 264.136719 L 303.503906 264.152344 L 303.472656 264.191406 L 303.457031 264.207031 L 303.421875 264.246094 L 303.410156 264.261719 L 303.390625 264.285156 L 303.355469 264.320312 L 303.34375 264.339844 L 302.601562 265.179688 L 302.585938 265.203125 L 302.570312 265.21875 L 302.550781 265.234375 L 302.539062 265.253906 L 302.519531 265.273438 L 302.503906 265.292969 L 302.46875 265.328125 L 301.976562 265.875 L 301.964844 265.890625 L 301.914062 265.941406 L 301.882812 265.980469 L 301.863281 265.996094 L 301.847656 266.011719 L 301.816406 266.050781 L 301.785156 266.082031 L 301.769531 266.101562 L 301.722656 266.15625 L 301.707031 266.171875 L 301.179688 266.738281 L 301.164062 266.757812 L 301.132812 266.789062 L 301.117188 266.8125 L 301.097656 266.828125 L 301.085938 266.84375 L 301.035156 266.894531 L 301.015625 266.910156 L 301.003906 266.929688 L 300.984375 266.945312 L 300.953125 266.984375 L 300.9375 267 L 300.390625 267.578125 L 299.359375 268.644531 L 299.359375 268.648438 L 298.78125 269.238281 L 298.761719 269.253906 L 298.742188 269.273438 L 298.726562 269.292969 L 298.402344 269.617188 L 298.382812 269.632812 L 298.363281 269.652344 L 298.347656 269.671875 L 298.328125 269.6875 L 298.308594 269.707031 L 298.289062 269.722656 L 298.269531 269.746094 L 298.234375 269.78125 L 298.214844 269.796875 L 298.195312 269.820312 L 298.175781 269.835938 L 298.15625 269.855469 L 298.140625 269.875 L 298.0625 269.953125 L 298.042969 269.96875 L 298.027344 269.988281 L 297.984375 270.023438 L 297.96875 270.042969 L 297.949219 270.058594 L 297.835938 270.171875 L 297.816406 270.195312 L 297.777344 270.230469 L 297.757812 270.246094 L 297.644531 270.359375 L 297.625 270.375 L 297.585938 270.414062 L 297.566406 270.429688 L 297.195312 270.796875 L 297.097656 270.894531 L 297.070312 270.917969 L 297.023438 270.964844 L 296.996094 270.988281 L 296.972656 271.011719 L 295.710938 272.195312 L 295.6875 272.21875 L 295.660156 272.238281 L 295.632812 272.265625 L 295.609375 272.285156 L 295.585938 272.308594 L 295.023438 272.816406 L 295.003906 272.832031 L 294.988281 272.847656 L 294.96875 272.863281 L 294.953125 272.878906 L 294.933594 272.894531 L 294.917969 272.914062 L 294.902344 272.925781 L 294.886719 272.941406 L 294.867188 272.957031 L 294.835938 272.988281 L 294.816406 273.003906 L 294.800781 273.019531 L 294.78125 273.035156 L 294.75 273.066406 L 294.730469 273.082031 L 294.714844 273.097656 L 294.695312 273.113281 L 294.679688 273.128906 L 294.664062 273.140625 L 294.648438 273.160156 L 294.628906 273.175781 L 294.613281 273.191406 L 294.597656 273.203125 L 294.578125 273.21875 L 294.5625 273.238281 L 294.546875 273.25 L 294.527344 273.265625 L 294.511719 273.28125 L 294.496094 273.300781 L 294.476562 273.3125 L 294.429688 273.359375 L 294.410156 273.375 L 294.378906 273.40625 L 294.359375 273.421875 L 294.34375 273.4375 L 294.324219 273.453125 L 294.292969 273.484375 L 294.273438 273.5 L 294.257812 273.515625 L 294.238281 273.53125 L 294.222656 273.546875 L 293.960938 273.777344 L 293.945312 273.789062 L 293.929688 273.804688 L 293.238281 274.398438 L 292.210938 275.277344 L 291.5625 275.8125 L 291.527344 275.835938 L 290.445312 276.710938 L 290.421875 276.730469 L 289.777344 277.242188 L 289.753906 277.257812 L 288.71875 278.054688 L 288.714844 278.058594 L 287.984375 278.609375 L 287.960938 278.625 L 287.9375 278.644531 L 287.917969 278.660156 L 287.871094 278.691406 L 287.851562 278.707031 L 287.828125 278.726562 L 287.742188 278.789062 L 287.71875 278.808594 L 287.695312 278.824219 L 287.671875 278.835938 L 287.652344 278.855469 L 287.605469 278.886719 L 287.585938 278.90625 L 287.5625 278.917969 L 287.542969 278.9375 L 287.519531 278.953125 L 287.5 278.96875 L 287.476562 278.984375 L 286.871094 279.421875 L 286.847656 279.4375 L 286.828125 279.453125 L 286.757812 279.5 L 286.738281 279.519531 L 286.714844 279.535156 L 286.691406 279.546875 L 286.671875 279.566406 L 286.601562 279.613281 L 286.582031 279.628906 L 286.558594 279.644531 L 286.246094 279.871094 L 286.214844 279.890625 L 286.160156 279.929688 L 286.140625 279.949219 L 286.128906 279.949219 L 286.101562 279.972656 L 286.074219 279.992188 L 286.046875 280.007812 L 286.015625 280.027344 L 285.992188 280.050781 L 285.960938 280.070312 L 285.933594 280.089844 L 284.589844 281.015625 L 284.558594 281.035156 L 284.53125 281.054688 L 284.5 281.074219 L 284.476562 281.09375 L 284.472656 281.09375 L 284.445312 281.113281 L 284.414062 281.128906 L 283.914062 281.460938 L 283.890625 281.476562 L 283.871094 281.484375 L 283.847656 281.5 L 283.828125 281.515625 L 283.808594 281.527344 L 283.789062 281.542969 L 283.765625 281.558594 L 283.746094 281.574219 L 283.726562 281.585938 L 283.707031 281.601562 L 283.683594 281.613281 L 283.664062 281.628906 L 283.640625 281.640625 L 283.601562 281.671875 L 283.582031 281.683594 L 283.539062 281.710938 L 283.515625 281.726562 L 283.496094 281.742188 L 283.476562 281.753906 L 283.457031 281.769531 L 283.433594 281.78125 L 283.414062 281.796875 L 283.394531 281.808594 L 283.371094 281.828125 L 283.351562 281.835938 L 283.328125 281.855469 L 283.308594 281.863281 L 283.289062 281.882812 L 283.265625 281.890625 L 283.25 281.910156 L 283.222656 281.921875 L 283.203125 281.9375 L 283.183594 281.945312 L 283.164062 281.964844 L 283.144531 281.972656 L 283.121094 281.992188 L 283.097656 282 L 283.078125 282.019531 L 283.058594 282.027344 L 283.039062 282.046875 L 283.019531 282.054688 L 282.996094 282.070312 L 282.636719 282.304688 L 282.613281 282.316406 L 282.59375 282.332031 L 282.574219 282.34375 L 281.921875 282.753906 L 281.882812 282.777344 L 281.863281 282.792969 L 281.84375 282.800781 L 281.824219 282.816406 L 281.785156 282.839844 L 281.765625 282.855469 L 281.726562 282.878906 L 281.710938 282.890625 L 281.6875 282.90625 L 281.609375 282.953125 L 281.589844 282.96875 L 281.570312 282.976562 L 281.550781 282.992188 L 280.699219 283.511719 L 280.679688 283.523438 L 280.660156 283.539062 L 280.011719 283.925781 L 278.765625 284.644531 L 278.042969 285.050781 L 278.023438 285.066406 L 278 285.078125 L 277.980469 285.085938 L 277.960938 285.101562 L 277.941406 285.113281 L 277.917969 285.121094 L 277.898438 285.136719 L 277.839844 285.171875 L 277.816406 285.183594 L 277.382812 285.421875 L 277.359375 285.4375 L 277.296875 285.464844 L 277.277344 285.480469 L 277.257812 285.492188 L 277.234375 285.5 L 277.214844 285.511719 L 277.191406 285.527344 L 277.171875 285.535156 L 277.152344 285.546875 L 277.132812 285.5625 L 277.109375 285.570312 L 277.03125 285.617188 L 277.007812 285.628906 L 276.988281 285.636719 L 276.964844 285.652344 L 276.925781 285.675781 L 276.902344 285.6875 L 276.882812 285.699219 L 276.863281 285.707031 L 276.84375 285.722656 L 276.824219 285.734375 L 276.800781 285.742188 L 276.78125 285.753906 L 276.757812 285.769531 L 276.738281 285.777344 L 276.71875 285.789062 L 276.15625 286.089844 L 276.109375 286.113281 L 276.082031 286.128906 L 276.035156 286.152344 L 276.011719 286.167969 L 275.988281 286.179688 L 275.671875 286.34375 L 275.644531 286.359375 L 275.546875 286.40625 L 275.527344 286.417969 L 275.5 286.433594 L 275.453125 286.457031 L 275.425781 286.46875 L 275.402344 286.480469 L 275.378906 286.496094 L 275.332031 286.519531 L 275.304688 286.535156 L 275.257812 286.558594 L 275.234375 286.574219 L 275.183594 286.597656 L 275.136719 286.621094 L 275.113281 286.636719 L 275.089844 286.644531 L 275.0625 286.660156 L 274.992188 286.695312 L 274.96875 286.710938 L 274.941406 286.722656 L 274.871094 286.757812 L 274.84375 286.773438 L 274.820312 286.789062 L 274.796875 286.796875 L 274.773438 286.8125 L 274.75 286.820312 L 274.722656 286.835938 L 274.652344 286.871094 L 274.625 286.886719 L 274.164062 287.117188 L 274.132812 287.136719 L 274.101562 287.148438 L 274.070312 287.167969 L 274.058594 287.171875 L 274.039062 287.179688 L 273.976562 287.210938 L 273.949219 287.226562 L 273.914062 287.242188 C 273.410156 287.488281 272.902344 287.730469 272.386719 287.96875 L 272.355469 287.980469 L 272.261719 288.027344 L 272.25 288.035156 L 272.230469 288.042969 L 272.199219 288.054688 L 272.167969 288.070312 L 271.898438 288.191406 L 271.871094 288.207031 L 271.789062 288.242188 L 271.761719 288.257812 L 271.734375 288.265625 L 271.707031 288.28125 L 271.679688 288.289062 L 271.652344 288.304688 L 270.945312 288.625 L 270.917969 288.632812 L 270.890625 288.648438 L 270.808594 288.683594 L 270.78125 288.699219 L 270.699219 288.734375 L 270.621094 288.773438 L 270.320312 288.902344 L 270.292969 288.917969 L 270.265625 288.925781 L 270.238281 288.9375 L 270.210938 288.953125 L 270.183594 288.960938 L 270.15625 288.976562 L 269.574219 289.21875 L 269.550781 289.226562 L 269.53125 289.234375 L 269.507812 289.246094 L 269.488281 289.253906 L 269.460938 289.269531 L 269.4375 289.273438 L 269.417969 289.285156 L 269.394531 289.296875 L 269.371094 289.304688 L 269.351562 289.3125 L 269.304688 289.335938 L 269.257812 289.351562 L 269.234375 289.363281 L 269.214844 289.375 L 269.191406 289.382812 L 269.171875 289.394531 L 269.144531 289.402344 L 269.121094 289.414062 L 269.101562 289.421875 L 269.078125 289.433594 L 269.03125 289.449219 L 269.011719 289.460938 L 268.964844 289.476562 L 268.28125 289.757812 L 268.257812 289.769531 L 268.234375 289.777344 L 268.214844 289.785156 L 268.191406 289.796875 L 268.164062 289.804688 L 268.144531 289.816406 L 268.121094 289.824219 L 267.429688 290.09375 L 267.417969 290.101562 L 266.136719 290.585938 L 266.125 290.589844 L 265.273438 290.898438 L 265.269531 290.898438 L 264.027344 291.328125 L 263.214844 291.605469 L 263.191406 291.609375 L 263.167969 291.617188 L 263.148438 291.628906 L 263.125 291.636719 L 263.101562 291.640625 L 262.734375 291.761719 L 262.710938 291.769531 L 262.691406 291.777344 L 262.667969 291.785156 L 262.644531 291.789062 L 262.621094 291.796875 L 262.601562 291.804688 L 262.484375 291.84375 L 262.464844 291.851562 L 262.441406 291.855469 L 262.371094 291.878906 L 262.351562 291.886719 L 262.328125 291.890625 L 262.28125 291.90625 L 262.199219 291.925781 L 262.175781 291.9375 L 262.152344 291.945312 L 262.132812 291.953125 L 262.105469 291.957031 L 262.082031 291.964844 L 262.0625 291.972656 L 262.015625 291.988281 L 261.996094 291.992188 L 261.972656 292 L 261.945312 292.007812 L 261.925781 292.015625 L 261.902344 292.023438 L 261.878906 292.027344 L 261.855469 292.039062 L 261.832031 292.046875 L 261.8125 292.054688 L 261.789062 292.058594 L 261.71875 292.082031 L 261.699219 292.089844 L 261.082031 292.28125 L 260.839844 292.351562 C 260.273438 292.519531 259.707031 292.679688 259.125 292.839844 L 259.03125 292.863281 L 258.753906 292.859375 L 257.71875 292.859375 C 261.898438 292.859375 265.308594 289.449219 265.308594 285.269531 C 265.308594 281.085938 261.898438 277.679688 257.71875 277.679688 L 186.390625 277.679688 L 185.671875 277.113281 L 185.496094 276.976562 L 185.296875 276.8125 L 184.683594 276.324219 L 184.53125 276.199219 L 183.824219 275.621094 L 183.71875 275.535156 L 183.523438 275.375 L 182.84375 274.804688 L 182.820312 274.777344 L 182.121094 274.179688 L 181.976562 274.054688 L 181.425781 273.570312 L 181.117188 273.296875 L 180.734375 272.953125 L 180.265625 272.523438 L 180.050781 272.328125 L 179.417969 271.742188 L 179.371094 271.699219 L 178.695312 271.0625 L 178.582031 270.953125 L 178.027344 270.414062 L 177.953125 270.339844 L 177.515625 269.914062 L 177.363281 269.761719 L 176.929688 269.332031 L 176.703125 269.101562 L 176.117188 268.507812 L 176.050781 268.4375 L 175.398438 267.761719 L 174.984375 267.316406 L 174.757812 267.082031 L 174.515625 266.824219 L 174.121094 266.394531 L 173.96875 266.226562 L 173.535156 265.75 L 173.421875 265.628906 C 173.027344 265.1875 172.632812 264.742188 172.242188 264.296875 L 172.179688 264.222656 L 171.628906 263.578125 L 171.574219 263.515625 C 171.191406 263.066406 170.808594 262.613281 170.433594 262.152344 L 170.363281 262.066406 L 169.816406 261.398438 L 169.222656 260.660156 L 169.183594 260.609375 L 168.640625 259.914062 L 168.621094 259.886719 L 168.101562 259.214844 L 168.03125 259.121094 L 167.5 258.417969 L 167.457031 258.363281 L 166.917969 257.632812 L 166.355469 256.863281 L 166.335938 256.839844 L 165.796875 256.085938 L 165.75 256.019531 L 165.355469 255.457031 L 165.171875 255.191406 L 164.808594 254.667969 L 164.53125 254.257812 L 164.1875 253.753906 L 164.078125 253.585938 C 163.40625 252.578125 162.746094 251.558594 162.105469 250.523438 L 162.03125 250.398438 C 161.035156 248.792969 160.078125 247.15625 159.160156 245.484375 L 159.082031 245.335938 C 158.160156 243.65625 157.277344 241.949219 156.4375 240.210938 L 156.011719 239.320312 C 154.320312 235.75 152.800781 232.054688 151.453125 228.257812 L 182.824219 228.257812 C 187.003906 228.257812 190.414062 224.84375 190.414062 220.664062 C 190.414062 216.484375 187.003906 213.074219 182.824219 213.074219 L 173.757812 213.074219 C 177.9375 213.074219 181.347656 209.664062 181.347656 205.480469 C 181.347656 201.300781 177.9375 197.890625 173.757812 197.890625 L 144.921875 197.890625 C 144.609375 194.246094 144.441406 190.542969 144.441406 186.800781 C 144.441406 178.820312 145.183594 171.042969 146.582031 163.554688 L 222.050781 163.554688 C 226.230469 163.554688 229.636719 160.144531 229.636719 155.964844 C 229.636719 151.78125 226.230469 148.371094 222.050781 148.371094 L 236.359375 148.371094 C 240.539062 148.371094 243.953125 144.960938 243.953125 140.78125 C 243.953125 136.601562 240.539062 133.191406 236.359375 133.191406 L 156.535156 133.191406 L 156.554688 133.152344 L 156.671875 132.90625 L 156.695312 132.859375 L 156.914062 132.414062 L 157.035156 132.167969 L 157.160156 131.925781 L 157.242188 131.757812 L 157.296875 131.652344 L 157.308594 131.625 L 157.320312 131.601562 L 157.335938 131.574219 L 157.347656 131.546875 L 157.363281 131.523438 L 157.375 131.5 L 157.933594 130.40625 L 157.949219 130.378906 L 157.964844 130.355469 L 157.976562 130.328125 L 157.988281 130.304688 L 158 130.277344 L 158.03125 130.230469 L 158.042969 130.203125 L 158.058594 130.175781 L 158.070312 130.152344 L 158.085938 130.128906 L 158.097656 130.101562 L 158.109375 130.078125 L 158.125 130.050781 L 158.136719 130.027344 L 158.207031 129.902344 L 158.242188 129.832031 L 158.257812 129.808594 L 158.265625 129.785156 L 158.28125 129.761719 L 158.296875 129.734375 L 158.308594 129.710938 L 158.410156 129.523438 L 158.421875 129.5 L 158.671875 129.027344 L 158.6875 129.007812 L 158.722656 128.933594 L 158.734375 128.914062 L 158.761719 128.863281 L 158.773438 128.84375 L 158.789062 128.816406 L 158.800781 128.792969 L 158.8125 128.773438 L 158.824219 128.75 L 158.839844 128.722656 L 158.851562 128.699219 L 158.867188 128.679688 L 158.878906 128.652344 L 158.894531 128.628906 L 158.894531 128.621094 L 158.90625 128.605469 L 158.917969 128.582031 L 158.929688 128.5625 L 158.945312 128.535156 L 158.96875 128.488281 L 158.984375 128.464844 L 159.007812 128.417969 L 159.023438 128.394531 L 159.246094 127.992188 L 159.910156 126.804688 L 159.929688 126.769531 L 160.230469 126.246094 L 160.800781 125.265625 L 161.21875 124.558594 L 161.804688 123.59375 L 162.125 123.070312 L 162.878906 121.875 L 162.890625 121.859375 L 163.089844 121.542969 L 163.105469 121.515625 L 163.152344 121.445312 L 163.179688 121.398438 L 163.199219 121.371094 L 163.257812 121.277344 L 163.273438 121.253906 L 163.289062 121.226562 L 163.308594 121.203125 L 163.320312 121.179688 L 163.382812 121.085938 L 163.398438 121.058594 L 163.476562 120.941406 L 163.492188 120.914062 L 163.871094 120.339844 L 163.996094 120.152344 L 164.011719 120.125 L 164.027344 120.105469 L 164.042969 120.082031 L 164.058594 120.054688 L 164.074219 120.035156 L 164.089844 120.007812 L 164.101562 119.992188 L 164.125 119.933594 L 164.140625 119.914062 L 164.171875 119.867188 L 164.183594 119.847656 L 164.199219 119.824219 L 164.214844 119.804688 L 164.230469 119.78125 C 164.484375 119.402344 164.734375 119.027344 164.992188 118.65625 L 165.011719 118.636719 L 165.023438 118.613281 L 165.039062 118.59375 L 165.054688 118.570312 L 165.070312 118.550781 L 165.167969 118.40625 L 165.394531 118.085938 L 166.199219 116.945312 L 166.46875 116.582031 L 167.242188 115.523438 L 167.28125 115.46875 L 167.574219 115.074219 L 167.621094 115.019531 L 168.316406 114.101562 L 168.359375 114.046875 L 168.757812 113.535156 L 168.757812 113.53125 L 169.375 112.753906 L 169.417969 112.699219 L 169.894531 112.101562 L 170.515625 111.347656 L 170.613281 111.226562 L 171.015625 110.742188 L 171.054688 110.699219 L 171.085938 110.65625 L 171.105469 110.632812 L 171.125 110.613281 L 171.230469 110.484375 L 171.269531 110.441406 L 171.339844 110.355469 L 171.777344 109.84375 L 171.8125 109.800781 L 171.847656 109.761719 L 171.882812 109.714844 L 171.921875 109.671875 L 171.957031 109.632812 L 171.996094 109.589844 L 172.03125 109.546875 L 172.070312 109.503906 L 172.105469 109.460938 L 172.289062 109.25 L 172.324219 109.207031 L 172.363281 109.167969 L 172.398438 109.125 L 172.4375 109.082031 L 172.472656 109.039062 L 172.507812 109 L 172.585938 108.914062 L 172.65625 108.828125 L 172.695312 108.789062 L 172.730469 108.746094 L 172.769531 108.703125 L 172.804688 108.664062 L 172.84375 108.621094 L 172.878906 108.578125 L 172.917969 108.535156 L 172.957031 108.496094 L 173.027344 108.410156 L 173.066406 108.371094 L 173.105469 108.328125 L 173.140625 108.289062 L 173.179688 108.246094 L 173.214844 108.203125 L 173.289062 108.121094 L 173.328125 108.078125 L 173.363281 108.039062 L 173.621094 107.757812 L 173.632812 107.742188 L 173.679688 107.695312 L 173.691406 107.679688 L 173.707031 107.660156 L 173.738281 107.628906 L 173.75 107.613281 L 173.796875 107.566406 L 173.808594 107.550781 L 173.855469 107.503906 L 173.867188 107.488281 L 173.882812 107.472656 L 173.914062 107.4375 L 173.929688 107.421875 L 173.941406 107.40625 L 173.972656 107.375 L 174.015625 107.324219 L 174.03125 107.3125 L 174.046875 107.296875 L 174.0625 107.277344 L 174.074219 107.261719 L 174.121094 107.214844 L 174.132812 107.199219 L 174.210938 107.121094 L 174.222656 107.105469 L 174.238281 107.089844 L 174.25 107.074219 L 174.265625 107.054688 L 174.28125 107.042969 L 174.3125 107.011719 L 174.324219 106.992188 L 174.386719 106.929688 L 174.398438 106.914062 L 174.445312 106.867188 L 174.457031 106.851562 L 174.519531 106.789062 L 174.53125 106.773438 L 174.550781 106.753906 L 174.5625 106.738281 L 174.984375 106.292969 L 175.023438 106.253906 L 175.761719 105.476562 L 176.269531 104.957031 L 176.292969 104.929688 L 176.996094 104.214844 L 177.515625 103.695312 L 178.378906 102.859375 L 178.726562 102.523438 L 178.753906 102.496094 L 179.570312 101.730469 L 180.097656 101.242188 L 180.167969 101.171875 L 180.207031 101.140625 L 180.222656 101.121094 C 180.546875 100.824219 180.871094 100.53125 181.199219 100.242188 L 181.21875 100.226562 L 181.253906 100.191406 L 181.273438 100.175781 L 181.289062 100.160156 L 181.3125 100.140625 L 181.328125 100.125 L 181.34375 100.113281 L 181.511719 99.964844 L 182.542969 99.0625 L 182.628906 98.992188 L 183.15625 98.546875 L 183.957031 97.878906 L 184 97.84375 L 184.398438 97.519531 L 184.417969 97.503906 L 185.40625 96.707031 L 185.851562 96.355469 L 186.664062 95.726562 L 187.324219 95.226562 L 188.015625 94.710938 L 188.703125 94.207031 L 189.546875 93.609375 L 190.074219 93.234375 L 190.136719 93.1875 L 190.160156 93.171875 L 190.179688 93.160156 L 190.222656 93.132812 L 190.261719 93.101562 L 190.324219 93.0625 L 190.34375 93.046875 L 191.351562 92.359375 L 191.371094 92.34375 L 191.390625 92.332031 L 191.410156 92.316406 L 191.433594 92.304688 L 191.453125 92.289062 L 191.503906 92.253906 L 191.808594 92.058594 L 192.871094 91.363281 L 193.5 90.964844 L 193.519531 90.953125 L 194.355469 90.429688 L 194.378906 90.414062 L 194.945312 90.074219 L 195.828125 89.542969 L 196.445312 89.1875 L 196.476562 89.167969 L 197.421875 88.628906 L 197.457031 88.613281 L 197.867188 88.382812 L 198.921875 87.8125 L 198.933594 87.800781 L 199.464844 87.519531 L 200.683594 86.890625 L 200.945312 86.753906 L 200.96875 86.742188 L 200.992188 86.734375 L 201.085938 86.6875 L 201.109375 86.671875 L 201.132812 86.664062 L 201.179688 86.640625 L 201.203125 86.625 L 201.226562 86.617188 L 201.296875 86.582031 L 201.320312 86.566406 L 202.261719 86.109375 L 202.28125 86.097656 L 202.375 86.050781 L 202.398438 86.042969 L 202.539062 85.972656 L 202.9375 85.789062 L 203.035156 85.742188 L 204 85.296875 L 204.011719 85.292969 L 204.691406 84.992188 L 204.765625 84.957031 L 205.539062 84.617188 L 205.5625 84.609375 L 206.296875 84.300781 L 207.148438 83.949219 L 207.84375 83.667969 L 208.777344 83.308594 L 209.453125 83.050781 L 210.300781 82.742188 L 210.378906 82.714844 L 211.042969 82.476562 L 211.058594 82.472656 L 211.082031 82.464844 L 211.097656 82.457031 L 211.113281 82.453125 L 211.152344 82.4375 L 211.167969 82.433594 L 211.1875 82.425781 L 211.203125 82.417969 L 211.222656 82.414062 L 211.238281 82.40625 L 211.257812 82.402344 L 211.273438 82.394531 L 211.292969 82.390625 L 211.3125 82.382812 L 211.332031 82.378906 L 211.347656 82.371094 L 211.367188 82.367188 L 211.382812 82.359375 L 211.402344 82.355469 L 211.417969 82.347656 L 211.4375 82.34375 L 211.453125 82.335938 L 211.476562 82.328125 L 211.507812 82.320312 L 211.523438 82.3125 L 211.546875 82.304688 L 211.5625 82.300781 L 211.578125 82.292969 L 211.59375 82.289062 L 211.617188 82.28125 L 211.632812 82.273438 L 211.648438 82.269531 L 211.667969 82.265625 L 211.6875 82.257812 L 211.703125 82.253906 L 211.71875 82.246094 L 211.738281 82.238281 L 211.757812 82.234375 L 211.773438 82.226562 L 211.789062 82.222656 L 211.808594 82.214844 L 211.828125 82.210938 L 211.84375 82.203125 L 211.863281 82.199219 L 211.878906 82.191406 L 211.898438 82.1875 L 211.914062 82.179688 L 211.933594 82.171875 L 211.949219 82.167969 L 211.96875 82.160156 L 211.988281 82.15625 L 212.003906 82.148438 L 212.023438 82.144531 L 212.039062 82.136719 L 212.058594 82.132812 L 212.074219 82.125 L 212.09375 82.121094 L 212.113281 82.113281 L 212.128906 82.109375 L 212.148438 82.101562 L 212.164062 82.09375 L 212.183594 82.089844 L 212.589844 81.953125 L 212.695312 81.917969 L 212.722656 81.910156 L 212.746094 81.902344 L 212.769531 81.890625 L 212.796875 81.882812 L 213.980469 81.511719 L 214.003906 81.503906 L 214.03125 81.496094 L 214.054688 81.488281 L 214.082031 81.480469 L 214.105469 81.472656 L 214.132812 81.464844 L 214.15625 81.457031 L 214.175781 81.449219 L 214.179688 81.449219 L 214.207031 81.441406 L 214.230469 81.4375 L 214.257812 81.425781 L 214.28125 81.417969 L 214.476562 81.363281 L 214.523438 81.347656 L 214.546875 81.34375 L 214.570312 81.335938 L 214.589844 81.328125 L 214.613281 81.320312 L 214.640625 81.3125 L 214.664062 81.304688 L 214.683594 81.300781 L 214.730469 81.285156 L 214.753906 81.28125 L 214.773438 81.273438 L 214.800781 81.265625 L 214.847656 81.25 L 214.890625 81.238281 L 214.9375 81.222656 L 214.964844 81.214844 L 214.984375 81.210938 L 215.03125 81.195312 L 215.078125 81.183594 L 215.097656 81.175781 L 215.171875 81.15625 L 215.191406 81.148438 L 215.214844 81.140625 L 215.238281 81.136719 L 215.285156 81.121094 L 215.308594 81.117188 L 215.332031 81.109375 L 215.351562 81.101562 L 215.375 81.097656 L 215.402344 81.089844 L 215.421875 81.082031 L 215.445312 81.074219 L 215.46875 81.070312 L 215.5625 81.039062 L 215.585938 81.035156 L 215.609375 81.027344 L 215.769531 80.980469 L 215.796875 80.976562 L 215.816406 80.96875 L 215.839844 80.960938 L 215.863281 80.957031 L 215.910156 80.941406 L 215.933594 80.9375 L 215.957031 80.929688 L 216.339844 80.828125 L 217.546875 80.503906 L 217.554688 80.503906 L 218.136719 80.355469 L 219.242188 80.085938 L 219.890625 79.9375 L 219.921875 79.929688 L 220.90625 79.714844 L 221.546875 79.578125 L 222.667969 79.359375 L 223.273438 79.242188 L 223.300781 79.238281 L 223.324219 79.234375 L 223.351562 79.230469 L 223.375 79.226562 L 223.449219 79.210938 L 223.480469 79.207031 L 223.503906 79.203125 L 223.558594 79.195312 L 223.582031 79.1875 L 223.609375 79.183594 L 223.632812 79.179688 L 223.660156 79.175781 L 223.683594 79.171875 L 224.824219 78.976562 L 224.851562 78.96875 L 224.875 78.964844 L 224.929688 78.957031 L 224.972656 78.953125 L 224.996094 78.945312 L 225.019531 78.941406 L 225.042969 78.941406 L 225.066406 78.933594 L 226.351562 78.742188 L 226.398438 78.734375 L 226.425781 78.730469 L 226.449219 78.730469 L 226.476562 78.722656 L 226.5 78.722656 L 226.523438 78.71875 L 226.550781 78.714844 L 226.597656 78.707031 L 227.269531 78.621094 L 227.285156 78.617188 L 227.300781 78.617188 L 227.324219 78.613281 L 227.339844 78.613281 L 227.355469 78.609375 L 227.375 78.605469 L 227.390625 78.605469 L 227.410156 78.601562 L 227.425781 78.601562 L 227.441406 78.597656 L 227.460938 78.597656 L 227.476562 78.59375 L 227.496094 78.589844 L 227.511719 78.589844 L 227.53125 78.585938 L 227.546875 78.585938 L 227.566406 78.582031 L 227.582031 78.582031 L 227.597656 78.578125 L 227.617188 78.578125 L 227.636719 78.574219 L 227.652344 78.574219 L 227.667969 78.570312 L 227.6875 78.570312 L 227.71875 78.5625 L 227.738281 78.5625 L 227.757812 78.558594 L 227.773438 78.558594 L 227.792969 78.554688 L 227.824219 78.550781 L 227.84375 78.546875 L 227.859375 78.546875 L 227.878906 78.542969 L 228.25 78.5 L 228.265625 78.496094 L 228.300781 78.492188 L 228.320312 78.492188 L 228.339844 78.488281 L 228.355469 78.488281 L 228.371094 78.484375 L 228.390625 78.484375 L 228.957031 78.421875 L 230.082031 78.304688 L 230.085938 78.304688 L 230.765625 78.246094 L 231.875 78.152344 L 231.878906 78.152344 L 232.5 78.109375 L 233.566406 78.050781 L 233.613281 78.046875 L 234.296875 78.015625 L 234.316406 78.011719 L 234.351562 78.011719 L 234.394531 78.007812 L 234.414062 78.007812 L 234.8125 77.992188 L 234.910156 77.992188 L 234.953125 77.988281 L 235.105469 77.988281 L 235.128906 77.984375 L 235.246094 77.984375 L 235.265625 77.980469 L 235.386719 77.980469 L 235.402344 77.976562 L 235.5625 77.976562 L 236 77.960938 L 236.027344 77.960938 L 236.058594 77.957031 L 236.28125 77.957031 L 236.335938 77.953125 L 236.363281 77.953125 C 236.796875 77.945312 237.226562 77.941406 237.652344 77.941406 L 237.835938 77.941406 Z M 237.835938 77.917969 " fill-opacity="1" fill-rule="evenodd"/><g clip-path="url(#94808bad51)"><g clip-path="url(#6ba4e09631)"><path fill="url(#b77c652b63)" d="M 144.445312 77.917969 L 144.445312 230.449219 L 330.476562 230.449219 L 330.476562 77.917969 Z M 144.445312 77.917969 " fill-rule="nonzero"/></g></g><g clip-path="url(#a140c4b11b)"><path fill="#1a1a1a" d="M 328.726562 144.203125 L 348.277344 145.109375 C 353.421875 157.949219 356.261719 172.03125 356.261719 186.796875 C 356.261719 195.1875 355.347656 203.355469 353.609375 211.199219 L 335.941406 206.511719 L 341.980469 208.113281 C 343.050781 201.191406 343.609375 194.070312 343.609375 186.796875 C 343.609375 171.953125 341.28125 157.734375 337.023438 144.589844 Z M 305.535156 93.628906 C 320.546875 103.046875 333.097656 116.246094 341.960938 131.945312 L 352.816406 132.449219 L 331.988281 131.484375 C 325.457031 116.902344 316.417969 104.035156 305.535156 93.628906 Z M 328.441406 244.058594 L 338.851562 246.820312 C 330.257812 260.25 318.867188 271.597656 305.535156 279.964844 C 315.777344 270.171875 324.378906 258.207031 330.800781 244.683594 Z M 236.359375 148.367188 L 26.21875 148.367188 C 14.496094 148.367188 4.929688 138.800781 4.929688 127.074219 C 4.929688 115.347656 14.496094 105.78125 26.21875 105.78125 L 40.226562 105.78125 C 44.410156 105.78125 47.816406 109.191406 47.816406 113.371094 C 47.816406 117.554688 44.40625 120.964844 40.226562 120.964844 L 26.21875 120.964844 C 22.875 120.964844 20.109375 123.726562 20.109375 127.074219 C 20.109375 130.421875 22.871094 133.1875 26.21875 133.1875 L 142.941406 133.1875 C 160.203125 93.109375 196.210938 65.542969 237.835938 65.542969 C 240.257812 65.542969 242.660156 65.636719 245.042969 65.820312 C 247.039062 65.71875 249.050781 65.667969 251.078125 65.667969 C 316.789062 65.667969 370.0625 119.898438 370.0625 186.796875 C 370.0625 250.058594 322.417969 301.996094 261.667969 307.453125 C 256.96875 309.421875 89.890625 308.039062 69.605469 308.039062 C 57.882812 308.039062 48.3125 298.472656 48.3125 286.742188 C 48.3125 275.015625 57.878906 265.449219 69.605469 265.449219 L 83.613281 265.449219 C 87.792969 265.449219 91.203125 268.859375 91.203125 273.042969 C 91.203125 277.222656 87.792969 280.632812 83.613281 280.632812 L 69.605469 280.632812 C 66.257812 280.632812 63.492188 283.394531 63.492188 286.742188 C 63.492188 290.089844 66.257812 292.855469 69.605469 292.855469 L 258.75 292.855469 L 259.03125 292.859375 C 300.402344 281.667969 331.234375 238.429688 331.234375 186.796875 C 331.234375 129.101562 292.738281 81.886719 244.054688 78.15625 C 242 78 239.929688 77.917969 237.835938 77.917969 C 202.972656 77.917969 172.578125 100.1875 156.53125 133.1875 L 236.359375 133.1875 C 240.539062 133.1875 243.949219 136.597656 243.949219 140.777344 C 243.949219 144.957031 240.539062 148.367188 236.359375 148.367188 Z M 186.386719 277.671875 L 167.820312 277.671875 C 154.71875 264.394531 144.507812 247.457031 138.410156 228.25 L 95.527344 228.25 C 83.808594 228.25 74.234375 218.683594 74.234375 206.957031 C 74.234375 195.230469 83.800781 185.664062 95.527344 185.664062 L 109.535156 185.664062 C 113.714844 185.664062 117.125 189.074219 117.125 193.253906 C 117.125 197.433594 113.710938 200.84375 109.535156 200.84375 L 95.527344 200.84375 C 92.183594 200.84375 89.417969 203.609375 89.417969 206.957031 C 89.417969 210.304688 92.179688 213.070312 95.527344 213.070312 L 182.824219 213.070312 C 187.003906 213.070312 190.414062 216.480469 190.414062 220.660156 C 190.414062 224.839844 187.003906 228.253906 182.824219 228.253906 L 151.453125 228.253906 C 158.621094 248.523438 170.886719 265.71875 186.386719 277.671875 Z M 144.921875 197.886719 L 132.503906 197.886719 C 132.214844 194.234375 132.0625 190.535156 132.0625 186.796875 C 132.0625 178.84375 132.738281 171.074219 134.011719 163.550781 L 146.578125 163.550781 C 145.179688 171.039062 144.4375 178.816406 144.4375 186.796875 C 144.441406 190.542969 144.605469 194.238281 144.921875 197.886719 Z M 348.957031 238.539062 L 328.441406 233.097656 L 334.984375 234.832031 C 336.964844 229.582031 338.628906 224.136719 339.949219 218.535156 L 335.945312 217.46875 L 356.457031 222.914062 L 350.832031 221.421875 C 349.050781 226.925781 346.855469 232.234375 344.285156 237.300781 Z M 348.957031 238.539062 " fill-opacity="1" fill-rule="evenodd"/></g><path fill="#c18700" d="M 253.121094 92.132812 C 257.164062 92.796875 261.792969 94.457031 265.523438 96.0625 C 274.808594 100.0625 283.261719 105.941406 290.394531 113.097656 C 317.441406 140.242188 322.421875 177.242188 315.511719 212.289062 C 314.835938 215.703125 312.226562 218.386719 308.757812 218.136719 C 305.289062 217.890625 302.261719 214.800781 302.910156 211.382812 C 309.054688 178.890625 305.667969 146.332031 281.445312 122.015625 C 275.449219 115.996094 268.332031 111.03125 260.523438 107.664062 C 257.78125 106.484375 254.046875 105.085938 251.070312 104.597656 C 247.636719 104.03125 245.296875 100.769531 245.863281 97.339844 C 246.425781 93.902344 249.6875 91.566406 253.121094 92.132812 " fill-opacity="1" fill-rule="evenodd"/><path fill="#f7b318" d="M 305.535156 93.628906 C 316.417969 104.035156 325.457031 116.902344 331.988281 131.484375 L 341.960938 131.945312 C 333.097656 116.246094 320.542969 103.046875 305.535156 93.628906 " fill-opacity="1" fill-rule="evenodd"/><path fill="#f7b318" d="M 348.277344 145.109375 L 337.023438 144.589844 C 341.285156 157.734375 343.609375 171.953125 343.609375 186.796875 C 343.609375 194.070312 343.050781 201.191406 341.980469 208.113281 L 353.613281 211.199219 C 355.347656 203.355469 356.265625 195.1875 356.265625 186.796875 C 356.261719 172.03125 353.421875 157.949219 348.277344 145.109375 " fill-opacity="1" fill-rule="evenodd"/><path fill="#f7b318" d="M 350.832031 221.421875 L 339.949219 218.535156 C 338.628906 224.136719 336.964844 229.582031 334.984375 234.832031 L 344.285156 237.300781 C 346.855469 232.230469 349.050781 226.925781 350.832031 221.421875 " fill-opacity="1" fill-rule="evenodd"/><path fill="#f7b318" d="M 338.851562 246.820312 L 330.800781 244.683594 C 324.378906 258.207031 315.777344 270.171875 305.535156 279.964844 C 318.867188 271.597656 330.257812 260.25 338.851562 246.820312 " fill-opacity="1" fill-rule="evenodd"/><path fill="#ffffff" d="M 304.523438 90.46875 L 289.835938 98.203125 L 292.792969 114.539062 L 285.058594 99.851562 L 268.722656 102.808594 L 283.414062 95.074219 L 280.453125 78.738281 L 288.1875 93.425781 Z M 304.523438 90.46875 " fill-opacity="1" fill-rule="evenodd"/></svg>